{"glyphs":{"0":{"ha":546,"x_min":21,"x_max":554,"o":"m 223 10 q 67 -57 113 10 q 21 -240 21 -124 l 21 -240 q 64 -496 21 -378 q 185 -684 107 -614 q 361 -755 262 -755 l 361 -755 q 506 -691 457 -755 q 554 -515 554 -627 l 554 -515 q 520 -282 554 -404 q 412 -75 486 -161 q 223 10 337 10 l 223 10 z m 236 -65 q 325 -137 283 -65 q 393 -322 367 -209 q 418 -550 418 -435 l 418 -550 q 403 -654 418 -613 q 360 -696 388 -696 l 360 -696 q 270 -623 314 -696 q 198 -437 226 -550 q 170 -215 170 -324 l 170 -215 q 236 -65 170 -65 l 236 -65 z"},"1":{"ha":317,"x_min":21,"x_max":324,"o":"m 21 0 l 153 -624 l 58 -624 l 70 -670 q 184 -685 125 -670 q 324 -748 243 -700 l 324 -748 l 165 0 l 21 0 z"},"2":{"ha":492,"x_min":-12,"x_max":472,"o":"m 313 12 q 272 7 293 12 q 219 -7 250 2 l 219 -7 q 158 -23 182 -18 q 108 -28 134 -28 l 108 -28 q -2 1 52 -28 l -2 1 l -6 1 q -12 -46 -12 -23 l -12 -46 q 10 -128 -12 -88 q 62 -203 31 -169 q 147 -290 93 -237 l 147 -290 q 239 -384 204 -345 q 298 -471 274 -424 q 322 -571 322 -519 l 322 -571 q 304 -661 322 -628 q 247 -694 285 -694 l 247 -694 q 190 -670 212 -694 q 168 -613 168 -647 l 168 -613 q 182 -552 168 -579 q 216 -514 195 -526 l 216 -514 l 216 -510 q 179 -485 199 -494 q 140 -476 159 -476 l 140 -476 q 89 -504 109 -476 q 68 -580 68 -532 l 68 -580 q 93 -661 68 -622 q 165 -725 117 -700 q 278 -750 213 -750 l 278 -750 q 419 -701 365 -750 q 472 -568 472 -653 l 472 -568 q 445 -468 472 -514 q 377 -386 417 -422 q 270 -299 337 -350 l 270 -299 q 165 -213 204 -249 q 105 -137 126 -177 l 105 -137 q 167 -145 134 -145 l 167 -145 q 217 -141 191 -145 q 266 -132 243 -137 l 266 -132 q 293 -126 270 -131 q 333 -122 315 -122 l 333 -122 q 383 -133 360 -122 q 431 -173 406 -145 l 431 -173 l 434 -171 q 447 -109 447 -134 l 447 -109 q 429 -46 447 -74 q 379 -3 410 -19 q 313 12 348 12 l 313 12 z"},"3":{"ha":514,"x_min":6,"x_max":498,"o":"m 205 5 q 70 -30 134 5 q 6 -165 6 -65 l 6 -165 q 38 -269 6 -230 q 127 -308 69 -308 l 127 -308 q 205 -257 195 -308 l 205 -257 q 136 -222 154 -254 q 117 -149 117 -190 l 117 -149 q 142 -82 117 -106 q 203 -58 167 -58 l 203 -58 q 265 -77 235 -58 q 313 -135 294 -96 q 332 -229 332 -174 l 332 -229 q 299 -342 332 -290 q 199 -418 265 -395 l 199 -418 q 291 -465 252 -433 q 350 -537 330 -498 q 370 -613 370 -577 l 370 -613 q 351 -672 370 -650 q 294 -695 331 -695 l 294 -695 q 237 -673 258 -695 q 215 -617 215 -652 l 215 -617 q 225 -572 215 -593 q 253 -546 234 -551 l 253 -546 q 177 -512 216 -512 l 177 -512 q 126 -534 146 -512 q 105 -597 105 -557 l 105 -597 q 133 -676 105 -642 q 207 -730 160 -711 q 312 -749 254 -749 l 312 -749 q 413 -729 371 -749 q 477 -676 455 -709 q 498 -603 498 -643 l 498 -603 q 463 -501 498 -551 q 361 -417 428 -451 l 361 -417 q 456 -352 424 -396 q 487 -252 487 -309 l 487 -252 q 452 -130 487 -190 q 352 -33 416 -71 q 205 5 287 5 l 205 5 z"},"4":{"ha":476,"x_min":-2,"x_max":477,"o":"m 477 -314 q 447 -245 477 -275 q 370 -206 417 -215 l 370 -206 l 326 0 l 187 0 l 262 -215 l 243 -221 q 180 -237 203 -232 q 131 -242 157 -242 l 131 -242 q 23 -221 65 -242 l 23 -221 l 19 -221 l -2 -260 l -2 -265 q 159 -486 101 -388 q 217 -673 217 -584 l 217 -673 q 209 -735 217 -703 l 209 -735 q 259 -742 230 -742 l 259 -742 q 329 -717 304 -742 q 354 -655 354 -693 l 354 -655 q 315 -548 354 -610 q 218 -426 275 -487 q 105 -322 160 -366 l 105 -322 l 106 -319 q 149 -331 124 -326 q 195 -337 173 -337 l 195 -337 q 255 -331 220 -337 q 299 -323 290 -325 l 299 -323 l 380 -556 l 444 -556 l 395 -324 q 458 -371 430 -337 l 458 -371 l 461 -369 q 477 -314 477 -341 l 477 -314 z"},"5":{"ha":517,"x_min":15,"x_max":502,"o":"m 197 5 q 62 -33 109 5 q 15 -141 15 -71 l 15 -141 q 51 -242 15 -204 q 145 -281 87 -281 l 145 -281 q 216 -230 206 -281 l 216 -230 q 151 -200 175 -225 q 126 -137 126 -176 l 126 -137 q 147 -82 126 -102 q 203 -62 168 -62 l 203 -62 q 298 -114 261 -62 q 335 -247 335 -166 l 335 -247 q 306 -353 335 -316 q 225 -391 277 -391 l 225 -391 q 94 -346 172 -391 l 94 -346 l 81 -355 l 158 -734 q 326 -721 271 -721 l 326 -721 q 500 -749 417 -721 l 500 -749 q 502 -716 502 -727 l 502 -716 q 475 -632 502 -664 q 387 -600 447 -600 l 387 -600 q 332 -605 364 -600 q 271 -616 300 -610 l 271 -616 q 220 -625 246 -621 l 220 -625 l 180 -444 q 304 -475 245 -475 l 304 -475 q 434 -419 386 -475 q 481 -269 481 -364 l 481 -269 q 446 -126 481 -188 q 346 -29 410 -64 q 197 5 281 5 l 197 5 z"},"6":{"ha":500,"x_min":16,"x_max":510,"o":"m 220 5 q 66 -57 115 5 q 16 -259 16 -120 l 16 -259 q 63 -505 16 -393 q 189 -683 109 -618 q 365 -749 269 -749 l 365 -749 q 471 -718 431 -749 q 510 -636 510 -687 l 510 -636 q 489 -570 510 -597 q 437 -544 468 -544 l 437 -544 q 406 -553 420 -544 q 386 -576 392 -562 l 386 -576 q 411 -600 402 -584 q 419 -634 419 -616 l 419 -634 q 406 -673 419 -657 q 367 -690 392 -690 l 367 -690 q 287 -647 326 -690 q 216 -528 247 -604 q 171 -360 185 -453 l 171 -360 l 174 -361 q 233 -431 192 -407 q 330 -455 274 -455 l 330 -455 q 441 -408 399 -455 q 483 -282 483 -362 l 483 -282 q 447 -142 483 -208 q 351 -35 411 -76 q 220 5 290 5 l 220 5 z m 241 -73 q 296 -100 269 -73 q 339 -175 322 -128 q 356 -279 356 -223 l 356 -279 q 335 -358 356 -333 q 276 -384 313 -384 l 276 -384 q 162 -219 162 -384 l 162 -219 q 241 -73 162 -73 l 241 -73 z"},"7":{"ha":464,"x_min":57,"x_max":521,"o":"m 175 4 q 102 -28 129 4 q 75 -117 75 -61 l 75 -117 q 105 -240 75 -177 q 175 -356 135 -303 q 276 -483 214 -410 l 276 -483 q 348 -572 326 -543 q 369 -621 369 -602 l 369 -621 q 334 -612 351 -616 q 302 -608 317 -608 l 302 -608 q 239 -619 276 -608 l 239 -619 q 214 -625 235 -620 q 171 -630 192 -630 l 171 -630 q 119 -618 142 -630 q 73 -578 96 -606 l 73 -578 l 70 -579 q 57 -640 57 -608 l 57 -640 q 95 -724 57 -693 q 194 -756 133 -756 l 194 -756 q 236 -752 216 -756 q 283 -741 256 -749 l 283 -741 q 337 -728 315 -732 q 385 -724 359 -724 l 385 -724 q 520 -745 441 -724 l 520 -745 l 521 -741 q 498 -676 521 -718 q 423 -556 474 -635 l 423 -556 q 324 -396 363 -463 q 256 -255 285 -330 q 227 -118 227 -181 l 227 -118 q 245 -15 227 -66 l 245 -15 q 175 4 210 4 l 175 4 z"},"8":{"ha":499,"x_min":-2,"x_max":502,"o":"m 355 -438 q 423 -370 397 -399 q 466 -303 448 -341 q 484 -223 484 -266 l 484 -223 q 449 -108 484 -161 q 353 -25 413 -56 q 220 6 292 6 l 220 6 q 106 -18 156 6 q 27 -86 55 -43 q -2 -187 -2 -130 l -2 -187 q 44 -309 -2 -257 q 188 -406 90 -362 l 188 -406 q 122 -490 145 -451 q 98 -576 98 -530 l 98 -576 q 127 -667 98 -626 q 207 -733 156 -709 q 318 -757 257 -757 l 318 -757 q 413 -739 371 -757 q 479 -688 455 -721 q 502 -616 502 -656 l 502 -616 q 355 -438 502 -518 l 355 -438 z m 329 -709 q 266 -681 291 -709 q 240 -611 240 -654 l 240 -611 q 259 -543 240 -575 q 314 -477 278 -512 l 314 -477 q 373 -552 351 -510 q 395 -633 395 -594 l 395 -633 q 378 -688 395 -668 q 329 -709 360 -709 l 329 -709 z m 225 -63 q 303 -99 270 -63 q 335 -184 335 -135 l 335 -184 q 308 -272 335 -231 q 229 -365 281 -313 l 229 -365 q 156 -286 181 -333 q 130 -186 130 -240 l 130 -186 q 156 -96 130 -130 q 225 -63 182 -63 l 225 -63 z"},"9":{"ha":489,"x_min":13,"x_max":492,"o":"m 158 3 q 53 -28 92 3 q 13 -110 13 -59 l 13 -110 q 34 -176 13 -149 q 85 -203 55 -203 l 85 -203 q 118 -194 103 -203 q 136 -171 132 -185 l 136 -171 q 113 -146 121 -162 q 104 -114 104 -131 l 104 -114 q 117 -79 104 -93 q 154 -65 129 -65 l 154 -65 q 233 -108 195 -65 q 299 -227 271 -151 q 339 -396 327 -303 l 339 -396 l 336 -395 q 278 -325 318 -349 q 181 -301 237 -301 l 181 -301 q 69 -347 111 -301 q 27 -474 27 -394 l 27 -474 q 66 -610 27 -547 q 168 -712 104 -674 q 306 -750 232 -750 l 306 -750 q 445 -683 398 -750 q 492 -487 492 -617 l 492 -487 q 448 -240 492 -352 q 327 -62 404 -128 q 158 3 250 3 l 158 3 z m 224 -374 q 319 -423 289 -374 q 349 -558 349 -472 l 349 -558 q 276 -685 349 -685 l 276 -685 q 215 -654 243 -685 q 171 -576 187 -624 q 154 -477 154 -528 l 154 -477 q 173 -399 154 -424 q 224 -374 192 -374 l 224 -374 z"}," ":{"ha":217,"x_min":0,"x_max":0,"o":""},"A":{"ha":668,"x_min":9,"x_max":692,"o":"m 218 114 q 153 108 181 114 q 105 79 125 102 q 84 8 84 56 l 84 8 q 125 -172 84 -59 q 231 -399 165 -285 l 231 -399 q 152 -384 181 -396 q 114 -347 123 -372 l 114 -347 q 123 -337 118 -347 q 127 -316 127 -327 l 127 -316 q 111 -287 127 -298 q 71 -277 95 -277 l 71 -277 q 26 -292 43 -277 q 9 -335 9 -307 l 9 -335 q 36 -397 9 -369 q 109 -441 62 -425 q 213 -458 156 -458 l 213 -458 q 265 -455 234 -458 l 265 -455 q 439 -667 347 -585 q 613 -750 530 -750 l 613 -750 q 692 -736 661 -750 l 692 -736 l 535 0 l 391 0 l 468 -363 q 400 -388 431 -380 q 334 -399 369 -396 l 334 -399 q 241 -147 277 -276 q 204 58 204 -19 l 204 58 q 218 114 204 96 l 218 114 z m 477 -407 l 535 -679 q 446 -593 492 -656 q 355 -442 399 -531 l 355 -442 q 477 -407 427 -428 l 477 -407 z"},"Á":{"ha":668,"x_min":9,"x_max":770,"o":"m 574 -811 l 665 -1000 l 770 -1000 l 649 -811 l 574 -811 z m 218 114 q 153 108 181 114 q 105 79 125 102 q 84 8 84 56 l 84 8 q 125 -172 84 -59 q 231 -399 165 -285 l 231 -399 q 152 -384 181 -396 q 114 -347 123 -372 l 114 -347 q 123 -337 118 -347 q 127 -316 127 -327 l 127 -316 q 111 -287 127 -298 q 71 -277 95 -277 l 71 -277 q 26 -292 43 -277 q 9 -335 9 -307 l 9 -335 q 36 -397 9 -369 q 109 -441 62 -425 q 213 -458 156 -458 l 213 -458 q 265 -455 234 -458 l 265 -455 q 439 -667 347 -585 q 613 -750 530 -750 l 613 -750 q 692 -736 661 -750 l 692 -736 l 535 0 l 391 0 l 468 -363 q 400 -388 431 -380 q 334 -399 369 -396 l 334 -399 q 241 -147 277 -276 q 204 58 204 -19 l 204 58 q 218 114 204 96 l 218 114 z m 477 -407 l 535 -679 q 446 -593 492 -656 q 355 -442 399 -531 l 355 -442 q 477 -407 427 -428 l 477 -407 z"},"Â":{"ha":668,"x_min":9,"x_max":764,"o":"m 471 -811 l 683 -1000 l 704 -1000 l 764 -811 l 731 -811 l 671 -891 l 515 -811 l 471 -811 z m 218 114 q 153 108 181 114 q 105 79 125 102 q 84 8 84 56 l 84 8 q 125 -172 84 -59 q 231 -399 165 -285 l 231 -399 q 152 -384 181 -396 q 114 -347 123 -372 l 114 -347 q 123 -337 118 -347 q 127 -316 127 -327 l 127 -316 q 111 -287 127 -298 q 71 -277 95 -277 l 71 -277 q 26 -292 43 -277 q 9 -335 9 -307 l 9 -335 q 36 -397 9 -369 q 109 -441 62 -425 q 213 -458 156 -458 l 213 -458 q 265 -455 234 -458 l 265 -455 q 439 -667 347 -585 q 613 -750 530 -750 l 613 -750 q 692 -736 661 -750 l 692 -736 l 535 0 l 391 0 l 468 -363 q 400 -388 431 -380 q 334 -399 369 -396 l 334 -399 q 241 -147 277 -276 q 204 58 204 -19 l 204 58 q 218 114 204 96 l 218 114 z m 477 -407 l 535 -679 q 446 -593 492 -656 q 355 -442 399 -531 l 355 -442 q 477 -407 427 -428 l 477 -407 z"},"Ä":{"ha":668,"x_min":9,"x_max":756,"o":"m 516 -823 q 472 -840 489 -823 q 455 -884 455 -858 l 455 -884 q 473 -927 455 -909 q 516 -945 490 -945 l 516 -945 q 558 -927 540 -945 q 576 -884 576 -909 l 576 -884 q 558 -840 576 -858 q 516 -823 540 -823 l 516 -823 z m 695 -823 q 652 -840 669 -823 q 634 -884 634 -858 l 634 -884 q 652 -927 634 -909 q 695 -945 670 -945 l 695 -945 q 738 -927 720 -945 q 756 -884 756 -909 l 756 -884 q 739 -840 756 -858 q 695 -823 721 -823 l 695 -823 z m 218 114 q 153 108 181 114 q 105 79 125 102 q 84 8 84 56 l 84 8 q 125 -172 84 -59 q 231 -399 165 -285 l 231 -399 q 152 -384 181 -396 q 114 -347 123 -372 l 114 -347 q 123 -337 118 -347 q 127 -316 127 -327 l 127 -316 q 111 -287 127 -298 q 71 -277 95 -277 l 71 -277 q 26 -292 43 -277 q 9 -335 9 -307 l 9 -335 q 36 -397 9 -369 q 109 -441 62 -425 q 213 -458 156 -458 l 213 -458 q 265 -455 234 -458 l 265 -455 q 439 -667 347 -585 q 613 -750 530 -750 l 613 -750 q 692 -736 661 -750 l 692 -736 l 535 0 l 391 0 l 468 -363 q 400 -388 431 -380 q 334 -399 369 -396 l 334 -399 q 241 -147 277 -276 q 204 58 204 -19 l 204 58 q 218 114 204 96 l 218 114 z m 477 -407 l 535 -679 q 446 -593 492 -656 q 355 -442 399 -531 l 355 -442 q 477 -407 427 -428 l 477 -407 z"},"À":{"ha":668,"x_min":9,"x_max":692,"o":"m 545 -811 l 486 -1000 l 591 -1000 l 620 -811 l 545 -811 z m 218 114 q 153 108 181 114 q 105 79 125 102 q 84 8 84 56 l 84 8 q 125 -172 84 -59 q 231 -399 165 -285 l 231 -399 q 152 -384 181 -396 q 114 -347 123 -372 l 114 -347 q 123 -337 118 -347 q 127 -316 127 -327 l 127 -316 q 111 -287 127 -298 q 71 -277 95 -277 l 71 -277 q 26 -292 43 -277 q 9 -335 9 -307 l 9 -335 q 36 -397 9 -369 q 109 -441 62 -425 q 213 -458 156 -458 l 213 -458 q 265 -455 234 -458 l 265 -455 q 439 -667 347 -585 q 613 -750 530 -750 l 613 -750 q 692 -736 661 -750 l 692 -736 l 535 0 l 391 0 l 468 -363 q 400 -388 431 -380 q 334 -399 369 -396 l 334 -399 q 241 -147 277 -276 q 204 58 204 -19 l 204 58 q 218 114 204 96 l 218 114 z m 477 -407 l 535 -679 q 446 -593 492 -656 q 355 -442 399 -531 l 355 -442 q 477 -407 427 -428 l 477 -407 z"},"Å":{"ha":668,"x_min":9,"x_max":692,"o":"m 599 -802 q 548 -822 567 -802 q 529 -872 529 -842 l 529 -872 q 551 -933 529 -904 q 614 -963 573 -963 l 614 -963 q 668 -941 649 -963 q 686 -886 686 -920 l 686 -886 q 665 -826 686 -850 q 599 -802 643 -802 l 599 -802 z m 603 -837 q 638 -849 626 -837 q 649 -883 649 -861 l 649 -883 q 643 -917 649 -904 q 616 -930 637 -930 l 616 -930 q 581 -913 592 -930 q 569 -874 569 -896 l 569 -874 q 603 -837 569 -837 l 603 -837 z m 218 114 q 153 108 181 114 q 105 79 125 102 q 84 8 84 56 l 84 8 q 125 -172 84 -59 q 231 -399 165 -285 l 231 -399 q 152 -384 181 -396 q 114 -347 123 -372 l 114 -347 q 123 -337 118 -347 q 127 -316 127 -327 l 127 -316 q 111 -287 127 -298 q 71 -277 95 -277 l 71 -277 q 26 -292 43 -277 q 9 -335 9 -307 l 9 -335 q 36 -397 9 -369 q 109 -441 62 -425 q 213 -458 156 -458 l 213 -458 q 265 -455 234 -458 l 265 -455 q 439 -667 347 -585 q 613 -750 530 -750 l 613 -750 q 692 -736 661 -750 l 692 -736 l 535 0 l 391 0 l 468 -363 q 400 -388 431 -380 q 334 -399 369 -396 l 334 -399 q 241 -147 277 -276 q 204 58 204 -19 l 204 58 q 218 114 204 96 l 218 114 z m 477 -407 l 535 -679 q 446 -593 492 -656 q 355 -442 399 -531 l 355 -442 q 477 -407 427 -428 l 477 -407 z"},"Ã":{"ha":668,"x_min":9,"x_max":810,"o":"m 649 -819 q 605 -824 626 -819 q 557 -839 584 -829 l 557 -839 q 517 -851 534 -847 q 481 -856 499 -856 l 481 -856 q 415 -830 444 -856 l 415 -830 l 409 -832 q 476 -905 433 -880 q 576 -930 519 -930 l 576 -930 q 623 -925 602 -930 q 668 -912 643 -921 l 668 -912 q 741 -897 711 -897 l 741 -897 q 804 -920 781 -897 l 804 -920 l 810 -919 q 781 -872 805 -896 q 721 -834 756 -849 q 649 -819 686 -819 l 649 -819 z m 218 114 q 153 108 181 114 q 105 79 125 102 q 84 8 84 56 l 84 8 q 125 -172 84 -59 q 231 -399 165 -285 l 231 -399 q 152 -384 181 -396 q 114 -347 123 -372 l 114 -347 q 123 -337 118 -347 q 127 -316 127 -327 l 127 -316 q 111 -287 127 -298 q 71 -277 95 -277 l 71 -277 q 26 -292 43 -277 q 9 -335 9 -307 l 9 -335 q 36 -397 9 -369 q 109 -441 62 -425 q 213 -458 156 -458 l 213 -458 q 265 -455 234 -458 l 265 -455 q 439 -667 347 -585 q 613 -750 530 -750 l 613 -750 q 692 -736 661 -750 l 692 -736 l 535 0 l 391 0 l 468 -363 q 400 -388 431 -380 q 334 -399 369 -396 l 334 -399 q 241 -147 277 -276 q 204 58 204 -19 l 204 58 q 218 114 204 96 l 218 114 z m 477 -407 l 535 -679 q 446 -593 492 -656 q 355 -442 399 -531 l 355 -442 q 477 -407 427 -428 l 477 -407 z"},"Æ":{"ha":764,"x_min":9,"x_max":909,"o":"m 218 113 q 147 105 173 111 q 102 75 120 98 q 84 1 84 51 l 84 1 q 125 -174 84 -63 q 231 -399 165 -286 l 231 -399 q 154 -384 182 -396 q 114 -347 125 -373 l 114 -347 q 123 -337 118 -347 q 127 -316 127 -327 l 127 -316 q 112 -288 127 -299 q 66 -277 97 -277 l 66 -277 q 26 -292 42 -277 q 9 -340 9 -308 l 9 -340 q 36 -396 9 -370 q 108 -439 63 -423 q 204 -455 153 -455 l 204 -455 q 263 -452 230 -455 l 263 -452 q 437 -667 345 -584 q 612 -751 529 -751 l 612 -751 q 691 -742 642 -751 l 691 -742 q 742 -734 715 -738 q 792 -731 768 -731 l 792 -731 q 909 -750 853 -731 l 909 -750 q 898 -711 907 -744 q 864 -659 888 -678 q 802 -640 840 -640 l 802 -640 q 750 -646 773 -640 q 707 -661 727 -653 q 678 -672 686 -669 l 678 -672 l 624 -419 l 779 -419 l 759 -345 l 608 -345 l 557 -106 l 781 -106 l 760 0 l 391 0 l 468 -363 q 333 -399 398 -394 l 333 -399 q 241 -148 277 -276 q 204 57 204 -21 l 204 57 q 211 103 204 94 q 218 113 218 111 l 218 113 z m 477 -407 l 535 -679 q 444 -592 491 -655 q 353 -441 397 -530 l 353 -441 q 477 -407 422 -428 l 477 -407 z"},"B":{"ha":641,"x_min":12,"x_max":606,"o":"m 387 17 q 318 1 347 17 q 288 -57 288 -16 l 288 -57 q 301 -115 288 -83 l 301 -115 q 335 -87 319 -95 q 368 -79 350 -79 l 368 -79 q 443 -135 418 -79 q 467 -259 467 -191 l 467 -259 q 372 -386 467 -386 l 372 -386 q 326 -383 345 -386 l 326 -383 l 244 0 l 100 0 l 236 -636 l 384 -656 l 337 -434 l 343 -434 q 414 -458 381 -434 q 467 -520 447 -483 q 487 -596 487 -558 l 487 -596 q 455 -673 487 -642 q 355 -704 422 -704 l 355 -704 q 236 -676 294 -704 q 142 -594 178 -649 q 105 -461 105 -539 l 105 -461 q 112 -409 105 -424 q 119 -393 119 -395 l 119 -393 q 39 -414 66 -393 q 12 -485 12 -436 l 12 -485 q 63 -614 12 -553 q 198 -712 114 -675 q 375 -750 282 -750 l 375 -750 q 493 -728 445 -750 q 565 -670 541 -706 q 588 -591 588 -634 l 588 -591 q 562 -502 588 -545 q 488 -432 536 -459 l 488 -432 q 577 -376 548 -421 q 606 -271 606 -332 l 606 -271 q 585 -147 606 -214 q 514 -31 563 -80 q 387 17 464 17 l 387 17 z"},"C":{"ha":497,"x_min":19,"x_max":535,"o":"m 238 16 q 72 -41 125 16 q 19 -230 19 -98 l 19 -230 q 55 -456 19 -335 q 169 -663 90 -577 q 368 -750 247 -750 l 368 -750 q 489 -717 443 -750 q 535 -616 535 -684 l 535 -616 q 518 -548 535 -573 q 465 -524 501 -524 l 465 -524 q 408 -550 429 -524 l 408 -550 q 440 -586 426 -559 q 454 -642 454 -613 l 454 -642 q 440 -686 454 -669 q 393 -703 425 -703 l 393 -703 q 292 -630 340 -703 q 215 -448 244 -558 q 185 -236 185 -338 l 185 -236 q 211 -120 185 -160 q 305 -80 237 -80 l 305 -80 q 414 -106 364 -80 q 500 -180 464 -132 l 500 -180 l 523 -170 q 449 -65 498 -107 q 344 -3 400 -23 q 238 16 288 16 l 238 16 z"},"Ç":{"ha":497,"x_min":19,"x_max":535,"o":"m 242 218 q 185 211 208 218 q 135 190 162 204 l 135 190 q 175 158 153 158 l 175 158 q 199 162 190 158 q 218 173 207 166 l 218 173 q 249 185 236 185 l 249 185 q 270 172 261 185 q 279 143 279 159 l 279 143 q 270 117 279 127 q 240 107 260 107 l 240 107 q 212 110 222 107 q 188 119 201 113 l 188 119 l 225 16 q 69 -44 118 13 q 19 -230 19 -101 l 19 -230 q 55 -456 19 -335 q 169 -663 90 -577 q 368 -750 247 -750 l 368 -750 q 489 -717 443 -750 q 535 -616 535 -684 l 535 -616 q 518 -548 535 -573 q 465 -524 501 -524 l 465 -524 q 408 -550 429 -524 l 408 -550 q 440 -586 426 -559 q 454 -642 454 -613 l 454 -642 q 440 -686 454 -669 q 393 -703 425 -703 l 393 -703 q 292 -630 340 -703 q 215 -448 244 -558 q 185 -236 185 -338 l 185 -236 q 211 -120 185 -160 q 305 -80 237 -80 l 305 -80 q 414 -106 364 -80 q 500 -180 464 -132 l 500 -180 l 523 -170 q 418 -41 490 -87 q 268 14 345 5 l 268 14 l 247 66 q 300 58 281 58 l 300 58 q 362 108 362 58 l 362 108 q 326 189 362 159 q 242 218 290 218 l 242 218 z"},"D":{"ha":663,"x_min":6,"x_max":645,"o":"m 368 13 q 246 -40 308 13 l 246 -40 l 238 0 l 94 0 l 230 -636 l 378 -656 l 258 -95 q 315 -75 286 -75 l 315 -75 q 416 -141 372 -75 q 483 -309 459 -207 q 507 -515 507 -411 l 507 -515 q 469 -658 507 -613 q 361 -704 430 -704 l 361 -704 q 227 -674 286 -704 q 133 -590 167 -645 q 99 -461 99 -535 l 99 -461 q 106 -409 99 -424 q 113 -393 113 -395 l 113 -393 q 34 -415 61 -393 q 6 -486 6 -437 l 6 -486 q 57 -615 6 -554 q 194 -713 108 -676 q 378 -750 279 -750 l 378 -750 q 580 -669 515 -750 q 645 -462 645 -588 l 645 -462 q 607 -237 645 -348 q 504 -57 568 -127 q 368 13 440 13 l 368 13 z"},"Ð":{"ha":663,"x_min":6,"x_max":645,"o":"m 368 13 q 246 -40 308 13 l 246 -40 l 238 0 l 94 0 l 168 -345 l 129 -345 l 149 -419 l 184 -419 l 230 -636 l 378 -656 l 327 -419 l 406 -419 l 386 -345 l 311 -345 l 258 -95 q 315 -75 286 -75 l 315 -75 q 415 -141 371 -75 q 483 -308 459 -207 q 507 -508 507 -409 l 507 -508 q 496 -617 507 -576 q 455 -681 485 -659 q 369 -704 425 -704 l 369 -704 q 227 -675 288 -704 q 133 -591 166 -646 q 99 -461 99 -536 l 99 -461 q 106 -409 99 -424 q 113 -393 113 -395 l 113 -393 q 33 -415 59 -393 q 6 -490 6 -438 l 6 -490 q 59 -614 6 -554 q 193 -712 111 -675 q 357 -750 275 -750 l 357 -750 q 645 -480 645 -750 l 645 -480 q 607 -239 645 -353 q 504 -56 568 -125 q 368 13 440 13 l 368 13 z"},"E":{"ha":459,"x_min":7,"x_max":493,"o":"m 191 18 q 54 -32 100 18 q 7 -158 7 -82 l 7 -158 q 30 -266 7 -212 q 94 -362 52 -321 q 192 -417 136 -403 l 192 -417 q 146 -470 161 -439 q 131 -537 131 -502 l 131 -537 q 160 -639 131 -589 q 239 -720 188 -689 q 350 -752 289 -752 l 350 -752 q 453 -719 413 -752 q 493 -627 493 -686 l 493 -627 q 471 -553 493 -583 q 419 -523 449 -523 l 419 -523 q 372 -550 392 -523 l 372 -550 q 403 -583 390 -556 q 416 -637 416 -610 l 416 -637 q 400 -679 416 -666 q 361 -693 384 -693 l 361 -693 q 309 -672 332 -693 q 272 -619 285 -652 q 259 -552 259 -587 l 259 -552 q 284 -467 259 -504 q 360 -418 309 -431 l 360 -418 q 268 -368 309 -407 q 204 -277 227 -329 q 181 -179 181 -226 l 181 -179 q 205 -106 181 -134 q 276 -78 228 -78 l 276 -78 q 381 -105 326 -78 q 461 -180 435 -133 l 461 -180 l 484 -170 q 364 -33 445 -84 q 191 18 283 18 l 191 18 z"},"É":{"ha":459,"x_min":7,"x_max":526,"o":"m 330 -811 l 421 -1000 l 526 -1000 l 405 -811 l 330 -811 z m 191 18 q 54 -32 100 18 q 7 -158 7 -82 l 7 -158 q 30 -266 7 -212 q 94 -362 52 -321 q 192 -417 136 -403 l 192 -417 q 146 -470 161 -439 q 131 -537 131 -502 l 131 -537 q 160 -639 131 -589 q 239 -720 188 -689 q 350 -752 289 -752 l 350 -752 q 453 -719 413 -752 q 493 -627 493 -686 l 493 -627 q 471 -553 493 -583 q 419 -523 449 -523 l 419 -523 q 372 -550 392 -523 l 372 -550 q 403 -583 390 -556 q 416 -637 416 -610 l 416 -637 q 400 -679 416 -666 q 361 -693 384 -693 l 361 -693 q 309 -672 332 -693 q 272 -619 285 -652 q 259 -552 259 -587 l 259 -552 q 284 -467 259 -504 q 360 -418 309 -431 l 360 -418 q 268 -368 309 -407 q 204 -277 227 -329 q 181 -179 181 -226 l 181 -179 q 205 -106 181 -134 q 276 -78 228 -78 l 276 -78 q 381 -105 326 -78 q 461 -180 435 -133 l 461 -180 l 484 -170 q 364 -33 445 -84 q 191 18 283 18 l 191 18 z"},"Ê":{"ha":459,"x_min":7,"x_max":495,"o":"m 202 -811 l 414 -1000 l 435 -1000 l 495 -811 l 463 -811 l 403 -891 l 246 -811 l 202 -811 z m 191 18 q 54 -32 100 18 q 7 -158 7 -82 l 7 -158 q 30 -266 7 -212 q 94 -362 52 -321 q 192 -417 136 -403 l 192 -417 q 146 -470 161 -439 q 131 -537 131 -502 l 131 -537 q 160 -639 131 -589 q 239 -720 188 -689 q 350 -752 289 -752 l 350 -752 q 453 -719 413 -752 q 493 -627 493 -686 l 493 -627 q 471 -553 493 -583 q 419 -523 449 -523 l 419 -523 q 372 -550 392 -523 l 372 -550 q 403 -583 390 -556 q 416 -637 416 -610 l 416 -637 q 400 -679 416 -666 q 361 -693 384 -693 l 361 -693 q 309 -672 332 -693 q 272 -619 285 -652 q 259 -552 259 -587 l 259 -552 q 284 -467 259 -504 q 360 -418 309 -431 l 360 -418 q 268 -368 309 -407 q 204 -277 227 -329 q 181 -179 181 -226 l 181 -179 q 205 -106 181 -134 q 276 -78 228 -78 l 276 -78 q 381 -105 326 -78 q 461 -180 435 -133 l 461 -180 l 484 -170 q 364 -33 445 -84 q 191 18 283 18 l 191 18 z"},"Ë":{"ha":459,"x_min":7,"x_max":540,"o":"m 299 -823 q 256 -840 273 -823 q 238 -884 238 -858 l 238 -884 q 256 -927 238 -909 q 299 -945 273 -945 l 299 -945 q 342 -927 324 -945 q 360 -884 360 -909 l 360 -884 q 342 -840 360 -858 q 299 -823 324 -823 l 299 -823 z m 479 -823 q 436 -840 453 -823 q 418 -884 418 -858 l 418 -884 q 436 -927 418 -909 q 479 -945 453 -945 l 479 -945 q 522 -927 504 -945 q 540 -884 540 -909 l 540 -884 q 522 -840 540 -858 q 479 -823 504 -823 l 479 -823 z m 191 18 q 54 -32 100 18 q 7 -158 7 -82 l 7 -158 q 30 -266 7 -212 q 94 -362 52 -321 q 192 -417 136 -403 l 192 -417 q 146 -470 161 -439 q 131 -537 131 -502 l 131 -537 q 160 -639 131 -589 q 239 -720 188 -689 q 350 -752 289 -752 l 350 -752 q 453 -719 413 -752 q 493 -627 493 -686 l 493 -627 q 471 -553 493 -583 q 419 -523 449 -523 l 419 -523 q 372 -550 392 -523 l 372 -550 q 403 -583 390 -556 q 416 -637 416 -610 l 416 -637 q 400 -679 416 -666 q 361 -693 384 -693 l 361 -693 q 309 -672 332 -693 q 272 -619 285 -652 q 259 -552 259 -587 l 259 -552 q 284 -467 259 -504 q 360 -418 309 -431 l 360 -418 q 268 -368 309 -407 q 204 -277 227 -329 q 181 -179 181 -226 l 181 -179 q 205 -106 181 -134 q 276 -78 228 -78 l 276 -78 q 381 -105 326 -78 q 461 -180 435 -133 l 461 -180 l 484 -170 q 364 -33 445 -84 q 191 18 283 18 l 191 18 z"},"È":{"ha":459,"x_min":7,"x_max":493,"o":"m 311 -811 l 252 -1000 l 357 -1000 l 386 -811 l 311 -811 z m 191 18 q 54 -32 100 18 q 7 -158 7 -82 l 7 -158 q 30 -266 7 -212 q 94 -362 52 -321 q 192 -417 136 -403 l 192 -417 q 146 -470 161 -439 q 131 -537 131 -502 l 131 -537 q 160 -639 131 -589 q 239 -720 188 -689 q 350 -752 289 -752 l 350 -752 q 453 -719 413 -752 q 493 -627 493 -686 l 493 -627 q 471 -553 493 -583 q 419 -523 449 -523 l 419 -523 q 372 -550 392 -523 l 372 -550 q 403 -583 390 -556 q 416 -637 416 -610 l 416 -637 q 400 -679 416 -666 q 361 -693 384 -693 l 361 -693 q 309 -672 332 -693 q 272 -619 285 -652 q 259 -552 259 -587 l 259 -552 q 284 -467 259 -504 q 360 -418 309 -431 l 360 -418 q 268 -368 309 -407 q 204 -277 227 -329 q 181 -179 181 -226 l 181 -179 q 205 -106 181 -134 q 276 -78 228 -78 l 276 -78 q 381 -105 326 -78 q 461 -180 435 -133 l 461 -180 l 484 -170 q 364 -33 445 -84 q 191 18 283 18 l 191 18 z"},"F":{"ha":459,"x_min":9,"x_max":606,"o":"m 88 0 l 232 -668 q 136 -620 169 -666 q 102 -461 102 -574 l 102 -461 q 109 -409 102 -424 q 116 -393 116 -395 l 116 -393 q 36 -415 62 -393 q 9 -490 9 -438 l 9 -490 q 44 -619 9 -561 q 156 -714 79 -678 q 350 -750 232 -750 l 350 -750 q 414 -745 374 -750 l 414 -745 q 516 -738 486 -738 l 516 -738 q 606 -750 569 -738 l 606 -750 q 595 -710 603 -741 q 567 -658 587 -680 q 511 -630 546 -637 l 511 -630 q 371 -649 452 -630 l 371 -649 l 329 -450 l 475 -450 l 459 -376 l 313 -376 l 232 0 l 88 0 z"},"G":{"ha":578,"x_min":19,"x_max":568,"o":"m 231 207 q 114 170 158 207 q 69 71 69 132 l 69 71 q 87 1 69 33 q 136 -49 105 -31 q 204 -68 167 -68 l 204 -68 q 266 -49 242 -68 q 289 1 289 -30 l 289 1 q 278 39 289 25 l 278 39 q 254 20 269 27 q 221 13 238 13 l 221 13 q 172 33 191 13 q 153 85 153 53 l 153 85 q 172 137 153 117 q 218 157 190 157 l 218 157 q 278 126 253 157 q 316 34 303 95 l 316 34 l 366 -187 l 362 -187 q 297 -129 335 -149 q 212 -109 258 -109 l 212 -109 q 110 -140 154 -109 q 43 -228 66 -171 q 19 -362 19 -286 l 19 -362 q 67 -562 19 -472 q 199 -705 115 -653 q 384 -757 283 -757 l 384 -757 q 519 -720 469 -757 q 568 -619 568 -683 l 568 -619 q 547 -550 568 -576 q 492 -524 526 -524 l 492 -524 q 457 -532 473 -524 q 429 -555 440 -540 l 429 -555 q 460 -593 447 -567 q 472 -647 472 -620 l 472 -647 q 455 -693 472 -677 q 405 -710 437 -710 l 405 -710 q 293 -658 347 -710 q 206 -524 239 -607 q 173 -350 173 -441 l 173 -350 q 197 -235 173 -275 q 266 -196 221 -196 l 266 -196 q 362 -253 320 -196 q 428 -419 403 -310 l 428 -419 l 546 -418 l 473 -82 q 383 137 441 67 q 231 207 324 207 l 231 207 z"},"H":{"ha":665,"x_min":12,"x_max":694,"o":"m 100 0 l 245 -680 q 142 -596 178 -652 q 105 -461 105 -540 l 105 -461 q 112 -409 105 -424 q 119 -393 119 -395 l 119 -393 q 39 -415 65 -393 q 12 -490 12 -438 l 12 -490 q 65 -614 12 -554 q 199 -712 117 -675 q 363 -750 281 -750 l 363 -750 q 403 -748 377 -750 l 403 -748 l 339 -450 l 486 -450 l 550 -748 l 694 -748 l 535 0 l 391 0 l 471 -376 l 324 -376 l 244 0 l 100 0 z"},"I":{"ha":375,"x_min":6,"x_max":397,"o":"m 94 0 l 239 -679 q 136 -596 172 -652 q 99 -461 99 -541 l 99 -461 q 106 -409 99 -424 q 113 -393 113 -395 l 113 -393 q 33 -415 59 -393 q 6 -490 6 -438 l 6 -490 q 59 -614 6 -554 q 193 -712 111 -675 q 357 -750 275 -750 l 357 -750 q 397 -748 371 -750 l 397 -748 l 238 0 l 94 0 z"},"Í":{"ha":375,"x_min":6,"x_max":489,"o":"m 293 -811 l 384 -1000 l 489 -1000 l 369 -811 l 293 -811 z m 94 0 l 239 -679 q 136 -596 172 -652 q 99 -461 99 -541 l 99 -461 q 106 -409 99 -424 q 113 -393 113 -395 l 113 -393 q 33 -415 59 -393 q 6 -490 6 -438 l 6 -490 q 59 -614 6 -554 q 193 -712 111 -675 q 357 -750 275 -750 l 357 -750 q 397 -748 371 -750 l 397 -748 l 238 0 l 94 0 z"},"Î":{"ha":375,"x_min":6,"x_max":463,"o":"m 170 -811 l 382 -1000 l 403 -1000 l 463 -811 l 432 -811 l 372 -891 l 214 -811 l 170 -811 z m 94 0 l 239 -679 q 136 -596 172 -652 q 99 -461 99 -541 l 99 -461 q 106 -409 99 -424 q 113 -393 113 -395 l 113 -393 q 33 -415 59 -393 q 6 -490 6 -438 l 6 -490 q 59 -614 6 -554 q 193 -712 111 -675 q 357 -750 275 -750 l 357 -750 q 397 -748 371 -750 l 397 -748 l 238 0 l 94 0 z"},"Ï":{"ha":375,"x_min":6,"x_max":489,"o":"m 248 -823 q 204 -840 221 -823 q 187 -884 187 -858 l 187 -884 q 205 -927 187 -909 q 248 -945 222 -945 l 248 -945 q 291 -927 273 -945 q 309 -884 309 -909 l 309 -884 q 291 -840 309 -858 q 248 -823 273 -823 l 248 -823 z m 428 -823 q 385 -840 402 -823 q 367 -884 367 -858 l 367 -884 q 385 -927 367 -909 q 428 -945 402 -945 l 428 -945 q 471 -927 452 -945 q 489 -884 489 -909 l 489 -884 q 471 -840 489 -858 q 428 -823 453 -823 l 428 -823 z m 94 0 l 239 -679 q 136 -596 172 -652 q 99 -461 99 -541 l 99 -461 q 106 -409 99 -424 q 113 -393 113 -395 l 113 -393 q 33 -415 59 -393 q 6 -490 6 -438 l 6 -490 q 59 -614 6 -554 q 193 -712 111 -675 q 357 -750 275 -750 l 357 -750 q 397 -748 371 -750 l 397 -748 l 238 0 l 94 0 z"},"Ì":{"ha":375,"x_min":6,"x_max":397,"o":"m 274 -811 l 215 -1000 l 320 -1000 l 349 -811 l 274 -811 z m 94 0 l 239 -679 q 136 -596 172 -652 q 99 -461 99 -541 l 99 -461 q 106 -409 99 -424 q 113 -393 113 -395 l 113 -393 q 33 -415 59 -393 q 6 -490 6 -438 l 6 -490 q 59 -614 6 -554 q 193 -712 111 -675 q 357 -750 275 -750 l 357 -750 q 397 -748 371 -750 l 397 -748 l 238 0 l 94 0 z"},"J":{"ha":536,"x_min":17,"x_max":578,"o":"m 165 207 q 56 169 94 207 q 17 66 17 130 l 17 66 q 50 -28 17 12 q 139 -68 83 -68 l 139 -68 q 210 -55 182 -68 q 237 -1 237 -43 l 237 -1 q 231 39 237 17 l 231 39 q 200 19 213 24 q 171 13 187 13 l 171 13 q 120 35 138 13 q 101 87 101 57 l 101 87 q 122 140 101 122 q 169 157 143 157 l 169 157 q 210 148 193 157 q 239 112 226 138 q 264 34 252 85 l 264 34 l 421 -680 q 317 -597 354 -653 q 280 -461 280 -541 l 280 -461 q 287 -409 280 -424 q 294 -393 294 -395 l 294 -393 q 214 -415 240 -393 q 187 -490 187 -438 l 187 -490 q 240 -614 187 -554 q 374 -712 292 -675 q 538 -750 456 -750 l 538 -750 l 578 -750 l 428 -40 q 342 145 402 83 q 165 207 282 207 l 165 207 z"},"K":{"ha":601,"x_min":6,"x_max":664,"o":"m 436 17 q 358 -50 358 17 l 358 -50 q 365 -100 358 -72 q 383 -174 371 -129 l 383 -174 q 404 -254 397 -221 q 411 -313 411 -287 l 411 -313 q 351 -381 411 -381 l 351 -381 q 318 -377 334 -381 l 318 -377 l 238 0 l 94 0 l 239 -680 q 136 -596 172 -652 q 99 -461 99 -540 l 99 -461 q 106 -409 99 -424 q 113 -393 113 -395 l 113 -393 q 33 -415 59 -393 q 6 -490 6 -438 l 6 -490 q 59 -614 6 -554 q 193 -712 111 -675 q 357 -750 275 -750 l 357 -750 q 397 -748 371 -750 l 397 -748 l 332 -442 l 435 -580 q 559 -745 558 -746 l 559 -745 l 664 -745 l 386 -425 l 421 -426 q 517 -397 489 -426 q 545 -319 545 -369 l 545 -319 q 538 -257 545 -290 q 518 -177 531 -225 l 518 -177 q 503 -116 510 -146 q 496 -66 496 -86 l 496 -66 q 507 -25 496 -43 q 535 0 517 -7 l 535 0 q 436 17 474 17 l 436 17 z"},"L":{"ha":379,"x_min":6,"x_max":663,"o":"m 559 250 q 471 225 514 250 q 360 146 427 199 l 360 146 q 275 82 310 106 q 198 40 239 57 q 113 23 156 23 l 113 23 q 90 24 98 23 l 90 24 l 239 -669 q 136 -586 172 -642 q 99 -451 99 -531 l 99 -451 q 106 -399 99 -414 q 113 -383 113 -385 l 113 -383 q 33 -405 59 -383 q 6 -480 6 -428 l 6 -480 q 59 -604 6 -544 q 193 -702 111 -665 q 357 -740 275 -740 l 357 -740 q 397 -738 371 -740 l 397 -738 l 243 -20 q 301 1 271 -13 q 372 37 330 14 l 372 37 q 483 91 437 72 q 579 109 529 109 l 579 109 q 663 93 624 109 l 663 93 q 628 208 655 166 q 559 250 600 250 l 559 250 z"},"M":{"ha":787,"x_min":67,"x_max":804,"o":"m 67 0 l 321 -687 q 204 -604 245 -662 q 162 -462 162 -547 l 162 -462 q 169 -410 162 -424 q 176 -393 176 -396 l 176 -393 q 69 -484 69 -393 l 69 -484 q 117 -608 69 -546 q 239 -710 164 -671 q 387 -750 313 -750 l 387 -750 q 463 -736 424 -750 l 463 -736 l 440 -209 l 660 -736 l 804 -736 l 699 0 l 555 0 l 619 -449 l 431 0 l 294 0 l 314 -451 l 147 0 l 67 0 z"},"N":{"ha":668,"x_min":6,"x_max":718,"o":"m 92 0 l 243 -685 q 140 -609 175 -661 q 104 -485 104 -558 l 104 -485 q 111 -426 104 -453 q 131 -383 118 -400 l 131 -383 q 37 -409 67 -383 q 6 -491 6 -436 l 6 -491 q 47 -621 6 -561 q 158 -718 88 -682 q 310 -754 228 -754 l 310 -754 q 350 -751 333 -754 q 389 -740 367 -748 l 389 -740 l 509 -205 l 621 -748 l 718 -748 l 555 0 l 417 0 l 301 -496 l 187 0 l 92 0 z"},"Ñ":{"ha":686,"x_min":6,"x_max":718,"o":"m 548 -819 q 504 -824 525 -819 q 456 -839 483 -829 l 456 -839 q 416 -851 433 -847 q 380 -856 398 -856 l 380 -856 q 314 -830 343 -856 l 314 -830 l 308 -832 q 375 -905 332 -880 q 475 -930 418 -930 l 475 -930 q 521 -925 500 -930 q 567 -912 542 -921 l 567 -912 q 640 -897 610 -897 l 640 -897 q 703 -920 680 -897 l 703 -920 l 709 -919 q 680 -872 704 -896 q 620 -834 655 -849 q 548 -819 585 -819 l 548 -819 z m 92 0 l 243 -685 q 140 -609 175 -661 q 104 -485 104 -558 l 104 -485 q 111 -426 104 -453 q 131 -383 118 -400 l 131 -383 q 37 -409 67 -383 q 6 -491 6 -436 l 6 -491 q 47 -621 6 -561 q 158 -718 88 -682 q 310 -754 228 -754 l 310 -754 q 350 -751 333 -754 q 389 -740 367 -748 l 389 -740 l 509 -205 l 621 -748 l 718 -748 l 555 0 l 417 0 l 301 -496 l 187 0 l 92 0 z"},"O":{"ha":665,"x_min":16,"x_max":656,"o":"m 287 6 q 156 -42 203 6 q 108 -195 108 -90 l 108 -195 q 140 -395 108 -284 q 234 -585 172 -506 q 379 -664 295 -664 l 379 -664 q 431 -656 409 -664 l 431 -656 q 347 -549 387 -630 q 281 -368 306 -468 q 256 -191 256 -268 l 256 -191 q 270 -106 256 -137 q 314 -75 284 -75 l 314 -75 q 412 -145 363 -75 q 492 -323 460 -216 q 523 -529 523 -430 l 523 -529 q 513 -628 523 -591 q 474 -685 502 -666 q 395 -704 446 -704 l 395 -704 q 252 -672 318 -704 q 147 -582 186 -641 q 107 -447 107 -524 l 107 -447 q 112 -407 107 -420 q 117 -393 117 -395 l 117 -393 q 42 -413 67 -393 q 16 -477 16 -433 l 16 -477 q 73 -609 16 -546 q 223 -711 129 -672 q 419 -750 316 -750 l 419 -750 q 600 -682 544 -750 q 656 -494 656 -614 l 656 -494 q 616 -271 656 -387 q 493 -74 576 -155 q 287 6 409 6 l 287 6 z"},"Ó":{"ha":665,"x_min":16,"x_max":656,"o":"m 397 -811 l 488 -1000 l 593 -1000 l 472 -811 l 397 -811 z m 287 6 q 156 -42 203 6 q 108 -195 108 -90 l 108 -195 q 140 -395 108 -284 q 234 -585 172 -506 q 379 -664 295 -664 l 379 -664 q 431 -656 409 -664 l 431 -656 q 347 -549 387 -630 q 281 -368 306 -468 q 256 -191 256 -268 l 256 -191 q 270 -106 256 -137 q 314 -75 284 -75 l 314 -75 q 412 -145 363 -75 q 492 -323 460 -216 q 523 -529 523 -430 l 523 -529 q 513 -628 523 -591 q 474 -685 502 -666 q 395 -704 446 -704 l 395 -704 q 252 -672 318 -704 q 147 -582 186 -641 q 107 -447 107 -524 l 107 -447 q 112 -407 107 -420 q 117 -393 117 -395 l 117 -393 q 42 -413 67 -393 q 16 -477 16 -433 l 16 -477 q 73 -609 16 -546 q 223 -711 129 -672 q 419 -750 316 -750 l 419 -750 q 600 -682 544 -750 q 656 -494 656 -614 l 656 -494 q 616 -271 656 -387 q 493 -74 576 -155 q 287 6 409 6 l 287 6 z"},"Ô":{"ha":665,"x_min":16,"x_max":656,"o":"m 272 -811 l 484 -1000 l 505 -1000 l 565 -811 l 533 -811 l 473 -891 l 316 -811 l 272 -811 z m 287 6 q 156 -42 203 6 q 108 -195 108 -90 l 108 -195 q 140 -395 108 -284 q 234 -585 172 -506 q 379 -664 295 -664 l 379 -664 q 431 -656 409 -664 l 431 -656 q 347 -549 387 -630 q 281 -368 306 -468 q 256 -191 256 -268 l 256 -191 q 270 -106 256 -137 q 314 -75 284 -75 l 314 -75 q 412 -145 363 -75 q 492 -323 460 -216 q 523 -529 523 -430 l 523 -529 q 513 -628 523 -591 q 474 -685 502 -666 q 395 -704 446 -704 l 395 -704 q 252 -672 318 -704 q 147 -582 186 -641 q 107 -447 107 -524 l 107 -447 q 112 -407 107 -420 q 117 -393 117 -395 l 117 -393 q 42 -413 67 -393 q 16 -477 16 -433 l 16 -477 q 73 -609 16 -546 q 223 -711 129 -672 q 419 -750 316 -750 l 419 -750 q 600 -682 544 -750 q 656 -494 656 -614 l 656 -494 q 616 -271 656 -387 q 493 -74 576 -155 q 287 6 409 6 l 287 6 z"},"Ö":{"ha":665,"x_min":16,"x_max":656,"o":"m 349 -823 q 306 -840 323 -823 q 288 -884 288 -858 l 288 -884 q 306 -927 288 -909 q 349 -945 323 -945 l 349 -945 q 392 -927 374 -945 q 410 -884 410 -909 l 410 -884 q 392 -840 410 -858 q 349 -823 374 -823 l 349 -823 z m 529 -823 q 486 -840 503 -823 q 468 -884 468 -858 l 468 -884 q 486 -927 468 -909 q 529 -945 503 -945 l 529 -945 q 572 -927 554 -945 q 590 -884 590 -909 l 590 -884 q 572 -840 590 -858 q 529 -823 554 -823 l 529 -823 z m 287 6 q 156 -42 203 6 q 108 -195 108 -90 l 108 -195 q 140 -395 108 -284 q 234 -585 172 -506 q 379 -664 295 -664 l 379 -664 q 431 -656 409 -664 l 431 -656 q 347 -549 387 -630 q 281 -368 306 -468 q 256 -191 256 -268 l 256 -191 q 270 -106 256 -137 q 314 -75 284 -75 l 314 -75 q 412 -145 363 -75 q 492 -323 460 -216 q 523 -529 523 -430 l 523 -529 q 513 -628 523 -591 q 474 -685 502 -666 q 395 -704 446 -704 l 395 -704 q 252 -672 318 -704 q 147 -582 186 -641 q 107 -447 107 -524 l 107 -447 q 112 -407 107 -420 q 117 -393 117 -395 l 117 -393 q 42 -413 67 -393 q 16 -477 16 -433 l 16 -477 q 73 -609 16 -546 q 223 -711 129 -672 q 419 -750 316 -750 l 419 -750 q 600 -682 544 -750 q 656 -494 656 -614 l 656 -494 q 616 -271 656 -387 q 493 -74 576 -155 q 287 6 409 6 l 287 6 z"},"Ò":{"ha":665,"x_min":16,"x_max":656,"o":"m 361 -811 l 302 -1000 l 407 -1000 l 436 -811 l 361 -811 z m 287 6 q 156 -42 203 6 q 108 -195 108 -90 l 108 -195 q 140 -395 108 -284 q 234 -585 172 -506 q 379 -664 295 -664 l 379 -664 q 431 -656 409 -664 l 431 -656 q 347 -549 387 -630 q 281 -368 306 -468 q 256 -191 256 -268 l 256 -191 q 270 -106 256 -137 q 314 -75 284 -75 l 314 -75 q 412 -145 363 -75 q 492 -323 460 -216 q 523 -529 523 -430 l 523 -529 q 513 -628 523 -591 q 474 -685 502 -666 q 395 -704 446 -704 l 395 -704 q 252 -672 318 -704 q 147 -582 186 -641 q 107 -447 107 -524 l 107 -447 q 112 -407 107 -420 q 117 -393 117 -395 l 117 -393 q 42 -413 67 -393 q 16 -477 16 -433 l 16 -477 q 73 -609 16 -546 q 223 -711 129 -672 q 419 -750 316 -750 l 419 -750 q 600 -682 544 -750 q 656 -494 656 -614 l 656 -494 q 616 -271 656 -387 q 493 -74 576 -155 q 287 6 409 6 l 287 6 z"},"Ø":{"ha":658,"x_min":15,"x_max":632,"o":"m 265 71 l 279 6 l 277 6 q 150 -39 196 6 q 104 -183 104 -85 l 104 -183 q 135 -370 104 -266 q 226 -548 166 -474 q 365 -622 285 -622 l 365 -622 q 410 -615 390 -622 l 410 -615 l 419 -656 q 381 -659 403 -659 l 381 -659 q 243 -629 306 -659 q 141 -545 179 -600 q 103 -418 103 -490 l 103 -418 q 108 -381 103 -393 q 113 -368 113 -370 l 113 -368 q 40 -386 65 -368 q 15 -446 15 -405 l 15 -446 q 70 -570 15 -511 q 214 -665 124 -629 q 404 -702 304 -702 l 404 -702 q 428 -701 420 -702 l 428 -701 l 439 -750 l 491 -750 l 479 -694 q 632 -462 632 -657 l 632 -462 q 600 -270 632 -371 q 499 -93 567 -170 q 332 1 431 -17 l 332 1 l 317 71 l 265 71 z m 351 -88 q 426 -183 390 -117 q 483 -334 461 -250 q 504 -495 504 -418 l 504 -495 q 496 -582 504 -549 q 466 -634 488 -615 l 466 -634 l 351 -88 z m 295 -70 l 409 -610 q 331 -507 368 -583 q 270 -340 293 -432 q 247 -179 247 -249 l 247 -179 q 295 -70 247 -80 l 295 -70 z"},"Õ":{"ha":665,"x_min":16,"x_max":675,"o":"m 514 -819 q 470 -824 491 -819 q 422 -839 449 -829 l 422 -839 q 382 -851 399 -847 q 346 -856 364 -856 l 346 -856 q 280 -830 309 -856 l 280 -830 l 274 -832 q 341 -905 298 -880 q 441 -930 384 -930 l 441 -930 q 488 -925 467 -930 q 533 -912 508 -921 l 533 -912 q 606 -897 576 -897 l 606 -897 q 669 -920 646 -897 l 669 -920 l 675 -919 q 646 -872 670 -896 q 586 -834 621 -849 q 514 -819 551 -819 l 514 -819 z m 287 6 q 156 -42 203 6 q 108 -195 108 -90 l 108 -195 q 140 -395 108 -284 q 234 -585 172 -506 q 379 -664 295 -664 l 379 -664 q 431 -656 409 -664 l 431 -656 q 347 -549 387 -630 q 281 -368 306 -468 q 256 -191 256 -268 l 256 -191 q 270 -106 256 -137 q 314 -75 284 -75 l 314 -75 q 412 -145 363 -75 q 492 -323 460 -216 q 523 -529 523 -430 l 523 -529 q 513 -628 523 -591 q 474 -685 502 -666 q 395 -704 446 -704 l 395 -704 q 252 -672 318 -704 q 147 -582 186 -641 q 107 -447 107 -524 l 107 -447 q 112 -407 107 -420 q 117 -393 117 -395 l 117 -393 q 42 -413 67 -393 q 16 -477 16 -433 l 16 -477 q 73 -609 16 -546 q 223 -711 129 -672 q 419 -750 316 -750 l 419 -750 q 600 -682 544 -750 q 656 -494 656 -614 l 656 -494 q 616 -271 656 -387 q 493 -74 576 -155 q 287 6 409 6 l 287 6 z"},"P":{"ha":573,"x_min":6,"x_max":593,"o":"m 94 0 l 230 -636 l 378 -656 l 307 -322 q 396 -364 355 -326 q 459 -458 436 -402 q 482 -568 482 -514 l 482 -568 q 451 -666 482 -628 q 358 -704 420 -704 l 358 -704 q 168 -640 236 -704 q 99 -461 99 -576 l 99 -461 q 106 -409 99 -424 q 113 -393 113 -395 l 113 -393 q 33 -415 59 -393 q 6 -490 6 -438 l 6 -490 q 59 -614 6 -554 q 193 -712 111 -675 q 357 -750 275 -750 l 357 -750 q 489 -723 436 -750 q 568 -651 542 -696 q 593 -553 593 -607 l 593 -553 q 558 -426 593 -488 q 456 -324 522 -364 q 304 -285 390 -285 l 304 -285 l 299 -285 l 238 0 l 94 0 z"},"Þ":{"ha":583,"x_min":6,"x_max":593,"o":"m 94 0 l 214 -562 q 129 -479 158 -533 q 99 -351 99 -426 l 99 -351 q 106 -299 99 -314 q 113 -283 113 -285 l 113 -283 q 33 -305 59 -283 q 6 -380 6 -328 l 6 -380 q 36 -474 6 -428 q 115 -558 65 -521 q 225 -616 165 -595 l 225 -616 l 250 -730 l 398 -750 l 374 -640 q 538 -579 482 -634 q 593 -443 593 -524 l 593 -443 q 558 -316 593 -378 q 456 -214 522 -254 q 304 -175 390 -175 l 304 -175 l 275 -175 l 238 0 l 94 0 z m 283 -212 l 297 -212 q 391 -250 348 -212 q 458 -345 433 -288 q 482 -458 482 -403 l 482 -458 q 453 -554 482 -516 q 365 -594 424 -592 l 365 -594 l 283 -212 z"},"Q":{"ha":665,"x_min":16,"x_max":656,"o":"m 509 113 q 443 97 468 113 q 406 56 418 80 q 380 -8 393 31 l 380 -8 q 287 6 335 6 l 287 6 q 156 -42 203 6 q 108 -195 108 -90 l 108 -195 q 140 -395 108 -284 q 234 -585 172 -506 q 379 -664 295 -664 l 379 -664 q 431 -656 409 -664 l 431 -656 q 347 -549 387 -630 q 281 -368 306 -468 q 256 -191 256 -268 l 256 -191 l 256 -173 q 258 -148 256 -156 l 258 -148 q 320 -157 294 -157 l 320 -157 q 400 -130 365 -157 l 400 -130 q 487 -309 451 -196 q 523 -529 523 -423 l 523 -529 q 513 -628 523 -591 q 474 -685 502 -666 q 395 -704 446 -704 l 395 -704 q 252 -672 318 -704 q 147 -582 186 -641 q 107 -447 107 -524 l 107 -447 q 112 -407 107 -420 q 117 -393 117 -395 l 117 -393 q 42 -413 67 -393 q 16 -477 16 -433 l 16 -477 q 73 -609 16 -546 q 223 -711 129 -672 q 419 -750 316 -750 l 419 -750 q 600 -682 544 -750 q 656 -494 656 -614 l 656 -494 q 635 -335 656 -420 q 571 -175 614 -251 q 465 -52 528 -99 l 465 -52 q 519 8 491 -13 q 590 29 547 29 l 590 29 q 612 27 596 29 l 612 27 q 569 95 593 76 q 509 113 544 113 l 509 113 z m 314 -75 q 352 -86 336 -75 l 352 -86 q 295 -120 332 -120 l 295 -120 q 266 -116 279 -120 l 266 -116 q 314 -75 280 -75 l 314 -75 z"},"R":{"ha":601,"x_min":6,"x_max":584,"o":"m 436 17 q 358 -50 358 17 l 358 -50 q 365 -100 358 -72 q 383 -174 371 -129 l 383 -174 q 404 -254 397 -221 q 411 -313 411 -287 l 411 -313 q 351 -381 411 -381 l 351 -381 q 318 -377 335 -381 l 318 -377 l 238 0 l 94 0 l 230 -636 l 378 -656 l 329 -425 l 337 -425 q 409 -452 376 -425 q 461 -519 442 -479 q 479 -599 479 -560 l 479 -599 q 452 -674 479 -645 q 369 -704 424 -704 l 369 -704 q 227 -675 288 -704 q 133 -591 166 -646 q 99 -461 99 -536 l 99 -461 q 106 -409 99 -424 q 113 -393 113 -395 l 113 -393 q 33 -415 59 -393 q 6 -490 6 -438 l 6 -490 q 59 -614 6 -554 q 193 -712 111 -675 q 357 -750 275 -750 l 357 -750 q 483 -728 432 -750 q 559 -669 534 -706 q 584 -590 584 -633 l 584 -590 q 555 -496 584 -543 q 476 -419 526 -449 l 476 -419 q 530 -382 514 -408 q 545 -319 545 -357 l 545 -319 q 538 -257 545 -290 q 518 -177 531 -225 l 518 -177 q 503 -116 510 -146 q 496 -66 496 -86 l 496 -66 q 507 -25 496 -43 q 535 0 517 -7 l 535 0 q 436 17 474 17 l 436 17 z"},"S":{"ha":570,"x_min":34,"x_max":553,"o":"m 245 18 q 134 -4 182 18 q 60 -65 86 -26 q 34 -157 34 -105 l 34 -157 q 53 -237 34 -201 q 103 -294 71 -273 q 172 -315 134 -315 l 172 -315 q 231 -297 207 -315 q 261 -249 255 -280 l 261 -249 q 178 -221 209 -249 q 147 -147 147 -194 l 147 -147 q 173 -78 147 -104 q 242 -52 199 -52 l 242 -52 q 330 -87 295 -52 q 364 -177 364 -123 l 364 -177 q 338 -266 364 -224 q 260 -368 312 -308 l 260 -368 q 179 -474 206 -430 q 151 -572 151 -519 l 151 -572 q 180 -665 151 -624 q 260 -731 209 -707 q 375 -755 311 -755 l 375 -755 q 505 -717 456 -755 q 553 -615 553 -679 l 553 -615 q 532 -547 553 -573 q 477 -521 511 -521 l 477 -521 q 416 -552 439 -521 l 416 -552 q 446 -589 435 -566 q 457 -637 457 -612 l 457 -637 q 438 -688 457 -669 q 386 -707 419 -707 l 386 -707 q 321 -678 346 -707 q 295 -606 295 -650 l 295 -606 q 318 -531 295 -566 q 390 -443 341 -497 l 390 -443 q 455 -369 430 -400 q 497 -297 479 -338 q 514 -210 514 -257 l 514 -210 q 479 -94 514 -146 q 382 -12 443 -42 q 245 18 320 18 l 245 18 z"},"T":{"ha":481,"x_min":6,"x_max":719,"o":"m 157 0 l 299 -662 l 287 -662 q 149 -617 198 -662 q 99 -460 99 -573 l 99 -460 q 106 -408 99 -423 q 113 -392 113 -394 l 113 -392 q 33 -414 59 -392 q 6 -489 6 -437 l 6 -489 q 41 -618 6 -560 q 153 -713 76 -677 q 347 -749 229 -749 l 347 -749 q 489 -737 413 -749 l 489 -737 q 603 -726 553 -726 l 603 -726 q 719 -747 667 -726 l 719 -747 q 686 -651 717 -682 q 594 -620 655 -620 l 594 -620 q 530 -625 562 -620 q 439 -642 498 -630 l 439 -642 l 301 0 l 157 0 z"},"U":{"ha":716,"x_min":-5,"x_max":762,"o":"m 355 7 q 206 -41 256 7 q 155 -185 155 -90 l 155 -185 q 169 -290 155 -232 l 169 -290 l 271 -696 q 137 -614 185 -673 q 89 -486 89 -556 l 89 -486 q 115 -391 89 -437 l 115 -391 q 27 -419 58 -391 q -5 -498 -5 -447 l -5 -498 q 48 -622 -5 -563 q 187 -718 100 -682 q 371 -754 274 -754 l 371 -754 q 427 -749 405 -754 l 427 -749 l 305 -287 q 288 -179 288 -224 l 288 -179 q 366 -84 288 -84 l 366 -84 q 521 -290 478 -84 l 521 -290 l 621 -752 l 762 -752 l 665 -290 q 555 -68 633 -143 q 355 7 476 7 l 355 7 z"},"Ú":{"ha":716,"x_min":-5,"x_max":756,"o":"m 446 -811 l 537 -1000 l 642 -1000 l 521 -811 l 446 -811 z m 343 7 q 195 -33 239 7 q 150 -152 150 -73 l 150 -152 q 166 -285 150 -210 q 215 -492 181 -360 l 215 -492 l 232 -560 l 265 -692 q 135 -610 182 -670 q 88 -462 88 -551 l 88 -462 q 95 -410 88 -424 q 102 -393 102 -396 l 102 -393 q 22 -414 49 -393 q -5 -485 -5 -436 l -5 -485 q 49 -615 -5 -554 q 190 -713 102 -676 q 373 -750 277 -750 l 373 -750 q 421 -745 395 -750 l 421 -745 l 377 -584 q 304 -305 322 -382 q 286 -181 286 -228 l 286 -181 q 302 -113 286 -136 q 355 -91 318 -91 l 355 -91 q 432 -111 404 -91 q 486 -205 459 -132 q 548 -439 512 -278 l 548 -439 l 615 -748 l 756 -748 l 690 -436 q 618 -176 655 -268 q 517 -39 581 -85 q 343 7 453 7 l 343 7 z"},"Û":{"ha":716,"x_min":-5,"x_max":756,"o":"m 358 -811 l 570 -1000 l 591 -1000 l 651 -811 l 619 -811 l 559 -891 l 402 -811 l 358 -811 z m 343 7 q 195 -33 239 7 q 150 -152 150 -73 l 150 -152 q 166 -285 150 -210 q 215 -492 181 -360 l 215 -492 l 232 -560 l 265 -692 q 135 -610 182 -670 q 88 -462 88 -551 l 88 -462 q 95 -410 88 -424 q 102 -393 102 -396 l 102 -393 q 22 -414 49 -393 q -5 -485 -5 -436 l -5 -485 q 49 -615 -5 -554 q 190 -713 102 -676 q 373 -750 277 -750 l 373 -750 q 421 -745 395 -750 l 421 -745 l 377 -584 q 304 -305 322 -382 q 286 -181 286 -228 l 286 -181 q 302 -113 286 -136 q 355 -91 318 -91 l 355 -91 q 432 -111 404 -91 q 486 -205 459 -132 q 548 -439 512 -278 l 548 -439 l 615 -748 l 756 -748 l 690 -436 q 618 -176 655 -268 q 517 -39 581 -85 q 343 7 453 7 l 343 7 z"},"Ü":{"ha":716,"x_min":-5,"x_max":756,"o":"m 439 -823 q 396 -840 413 -823 q 378 -884 378 -858 l 378 -884 q 396 -927 378 -909 q 439 -945 413 -945 l 439 -945 q 482 -927 464 -945 q 500 -884 500 -909 l 500 -884 q 482 -840 500 -858 q 439 -823 464 -823 l 439 -823 z m 619 -823 q 576 -840 593 -823 q 558 -884 558 -858 l 558 -884 q 576 -927 558 -909 q 619 -945 593 -945 l 619 -945 q 662 -927 644 -945 q 680 -884 680 -909 l 680 -884 q 662 -840 680 -858 q 619 -823 644 -823 l 619 -823 z m 343 7 q 195 -33 239 7 q 150 -152 150 -73 l 150 -152 q 166 -285 150 -210 q 215 -492 181 -360 l 215 -492 l 232 -560 l 265 -692 q 135 -610 182 -670 q 88 -462 88 -551 l 88 -462 q 95 -410 88 -424 q 102 -393 102 -396 l 102 -393 q 22 -414 49 -393 q -5 -485 -5 -436 l -5 -485 q 49 -615 -5 -554 q 190 -713 102 -676 q 373 -750 277 -750 l 373 -750 q 421 -745 395 -750 l 421 -745 l 377 -584 q 304 -305 322 -382 q 286 -181 286 -228 l 286 -181 q 302 -113 286 -136 q 355 -91 318 -91 l 355 -91 q 432 -111 404 -91 q 486 -205 459 -132 q 548 -439 512 -278 l 548 -439 l 615 -748 l 756 -748 l 690 -436 q 618 -176 655 -268 q 517 -39 581 -85 q 343 7 453 7 l 343 7 z"},"Ù":{"ha":716,"x_min":-5,"x_max":756,"o":"m 464 -811 l 405 -1000 l 510 -1000 l 539 -811 l 464 -811 z m 343 7 q 195 -33 239 7 q 150 -152 150 -73 l 150 -152 q 166 -285 150 -210 q 215 -492 181 -360 l 215 -492 l 232 -560 l 265 -692 q 135 -610 182 -670 q 88 -462 88 -551 l 88 -462 q 95 -410 88 -424 q 102 -393 102 -396 l 102 -393 q 22 -414 49 -393 q -5 -485 -5 -436 l -5 -485 q 49 -615 -5 -554 q 190 -713 102 -676 q 373 -750 277 -750 l 373 -750 q 421 -745 395 -750 l 421 -745 l 377 -584 q 304 -305 322 -382 q 286 -181 286 -228 l 286 -181 q 302 -113 286 -136 q 355 -91 318 -91 l 355 -91 q 432 -111 404 -91 q 486 -205 459 -132 q 548 -439 512 -278 l 548 -439 l 615 -748 l 756 -748 l 690 -436 q 618 -176 655 -268 q 517 -39 581 -85 q 343 7 453 7 l 343 7 z"},"V":{"ha":615,"x_min":6,"x_max":686,"o":"m 264 0 l 248 -683 q 138 -599 177 -656 q 99 -461 99 -543 l 99 -461 q 106 -409 99 -424 q 113 -393 113 -395 l 113 -393 q 33 -415 59 -393 q 6 -490 6 -438 l 6 -490 q 59 -614 6 -554 q 193 -712 111 -675 q 357 -750 275 -750 l 357 -750 q 397 -748 371 -750 l 397 -748 l 406 -133 l 616 -745 l 686 -745 l 408 0 l 264 0 z"},"W":{"ha":962,"x_min":6,"x_max":1032,"o":"m 264 0 l 248 -683 q 138 -599 177 -656 q 99 -461 99 -543 l 99 -461 q 106 -409 99 -424 q 113 -393 113 -395 l 113 -393 q 33 -415 59 -393 q 6 -490 6 -438 l 6 -490 q 59 -614 6 -554 q 193 -712 111 -675 q 357 -750 275 -750 l 357 -750 q 397 -748 371 -750 l 397 -748 l 406 -133 l 616 -745 l 743 -745 l 752 -133 l 962 -745 l 1032 -745 l 754 0 l 610 0 l 598 -509 l 408 0 l 264 0 z"},"X":{"ha":620,"x_min":6,"x_max":626,"o":"m 134 0 l 322 -332 l 248 -683 q 138 -599 177 -656 q 99 -461 99 -543 l 99 -461 q 106 -409 99 -424 q 113 -393 113 -395 l 113 -393 q 33 -415 59 -393 q 6 -490 6 -438 l 6 -490 q 59 -614 6 -554 q 193 -712 111 -675 q 357 -750 275 -750 l 357 -750 q 397 -748 371 -750 l 397 -748 l 440 -540 l 556 -745 l 626 -745 l 458 -454 l 552 0 l 393 0 l 340 -250 l 195 0 l 134 0 z"},"Y":{"ha":620,"x_min":6,"x_max":698,"o":"m 278 0 l 344 -308 l 248 -683 q 138 -599 177 -656 q 99 -461 99 -543 l 99 -461 q 106 -409 99 -424 q 113 -393 113 -395 l 113 -393 q 33 -415 59 -393 q 6 -490 6 -438 l 6 -490 q 59 -614 6 -554 q 193 -712 111 -675 q 357 -750 275 -750 l 357 -750 q 397 -748 371 -750 l 397 -748 l 484 -390 l 632 -745 l 698 -745 l 504 -308 l 438 0 l 278 0 z"},"Ý":{"ha":620,"x_min":6,"x_max":698,"o":"m 492 -811 l 583 -1000 l 688 -1000 l 567 -811 l 492 -811 z m 278 0 l 344 -308 l 248 -683 q 138 -599 177 -656 q 99 -461 99 -543 l 99 -461 q 106 -409 99 -424 q 113 -393 113 -395 l 113 -393 q 33 -415 59 -393 q 6 -490 6 -438 l 6 -490 q 59 -614 6 -554 q 193 -712 111 -675 q 357 -750 275 -750 l 357 -750 q 397 -748 371 -750 l 397 -748 l 484 -390 l 632 -745 l 698 -745 l 504 -308 l 438 0 l 278 0 z"},"Z":{"ha":542,"x_min":11,"x_max":552,"o":"m 11 0 l 361 -696 q 327 -697 340 -696 l 327 -697 l 271 -698 q 179 -676 179 -698 l 179 -676 q 191 -668 185 -676 q 196 -644 196 -660 l 196 -644 q 178 -600 196 -614 q 137 -587 159 -587 l 137 -587 q 98 -604 110 -587 q 86 -646 86 -622 l 86 -646 q 119 -718 86 -687 q 209 -750 152 -750 l 209 -750 l 552 -750 l 207 -65 q 250 -64 235 -65 l 250 -64 l 303 -63 q 372 -67 345 -63 q 407 -85 398 -72 l 407 -85 q 395 -92 400 -85 q 389 -116 389 -100 l 389 -116 q 407 -160 389 -146 q 449 -174 425 -174 l 449 -174 q 488 -157 475 -174 q 500 -116 500 -140 l 500 -116 q 484 -63 500 -90 q 439 -18 468 -36 q 372 0 409 0 l 372 0 l 11 0 z"},"a":{"ha":526,"x_min":-13,"x_max":568,"o":"m 120 6 q 25 -33 63 6 q -13 -155 -13 -72 l -13 -155 q 17 -310 -13 -229 q 105 -448 46 -392 q 244 -505 163 -505 l 244 -505 q 305 -491 285 -505 q 325 -454 325 -477 l 325 -454 l 325 -447 l 336 -500 l 480 -500 l 408 -160 q 404 -128 404 -145 l 404 -128 q 445 -85 404 -85 l 445 -85 q 494 -111 473 -85 q 526 -179 514 -137 l 526 -179 l 568 -179 q 477 -32 531 -71 q 367 6 422 6 l 367 6 q 300 -17 325 6 q 269 -86 274 -41 l 269 -86 q 205 -19 240 -45 q 120 6 169 6 l 120 6 z m 185 -91 q 235 -114 210 -91 q 268 -179 259 -138 l 268 -179 l 316 -405 q 306 -430 316 -418 q 275 -443 296 -443 l 275 -443 q 203 -396 235 -443 q 153 -284 171 -350 q 135 -169 135 -219 l 135 -169 q 150 -105 135 -119 q 185 -91 164 -91 l 185 -91 z"},"á":{"ha":526,"x_min":-13,"x_max":568,"o":"m 245 -561 l 336 -750 l 441 -750 l 320 -561 l 245 -561 z m 120 6 q 25 -33 63 6 q -13 -155 -13 -72 l -13 -155 q 17 -310 -13 -229 q 105 -448 46 -392 q 244 -505 163 -505 l 244 -505 q 305 -491 285 -505 q 325 -454 325 -477 l 325 -454 l 325 -447 l 336 -500 l 480 -500 l 408 -160 q 404 -128 404 -145 l 404 -128 q 445 -85 404 -85 l 445 -85 q 494 -111 473 -85 q 526 -179 514 -137 l 526 -179 l 568 -179 q 477 -32 531 -71 q 367 6 422 6 l 367 6 q 300 -17 325 6 q 269 -86 274 -41 l 269 -86 q 205 -19 240 -45 q 120 6 169 6 l 120 6 z m 185 -91 q 235 -114 210 -91 q 268 -179 259 -138 l 268 -179 l 316 -405 q 306 -430 316 -418 q 275 -443 296 -443 l 275 -443 q 203 -396 235 -443 q 153 -284 171 -350 q 135 -169 135 -219 l 135 -169 q 150 -105 135 -119 q 185 -91 164 -91 l 185 -91 z"},"â":{"ha":526,"x_min":-13,"x_max":568,"o":"m 156 -561 l 368 -750 l 389 -750 l 449 -561 l 417 -561 l 357 -641 l 200 -561 l 156 -561 z m 120 6 q 25 -33 63 6 q -13 -155 -13 -72 l -13 -155 q 17 -310 -13 -229 q 105 -448 46 -392 q 244 -505 163 -505 l 244 -505 q 305 -491 285 -505 q 325 -454 325 -477 l 325 -454 l 325 -447 l 336 -500 l 480 -500 l 408 -160 q 404 -128 404 -145 l 404 -128 q 445 -85 404 -85 l 445 -85 q 494 -111 473 -85 q 526 -179 514 -137 l 526 -179 l 568 -179 q 477 -32 531 -71 q 367 6 422 6 l 367 6 q 300 -17 325 6 q 269 -86 274 -41 l 269 -86 q 205 -19 240 -45 q 120 6 169 6 l 120 6 z m 185 -91 q 235 -114 210 -91 q 268 -179 259 -138 l 268 -179 l 316 -405 q 306 -430 316 -418 q 275 -443 296 -443 l 275 -443 q 203 -396 235 -443 q 153 -284 171 -350 q 135 -169 135 -219 l 135 -169 q 150 -105 135 -119 q 185 -91 164 -91 l 185 -91 z"},"ä":{"ha":526,"x_min":-13,"x_max":568,"o":"m 241 -573 q 198 -590 215 -573 q 180 -634 180 -608 l 180 -634 q 198 -677 180 -659 q 241 -695 215 -695 l 241 -695 q 284 -677 266 -695 q 302 -634 302 -659 l 302 -634 q 284 -590 302 -608 q 241 -573 266 -573 l 241 -573 z m 421 -573 q 378 -590 395 -573 q 360 -634 360 -608 l 360 -634 q 378 -677 360 -659 q 421 -695 395 -695 l 421 -695 q 464 -677 446 -695 q 482 -634 482 -659 l 482 -634 q 464 -590 482 -608 q 421 -573 446 -573 l 421 -573 z m 120 6 q 25 -33 63 6 q -13 -155 -13 -72 l -13 -155 q 17 -310 -13 -229 q 105 -448 46 -392 q 244 -505 163 -505 l 244 -505 q 305 -491 285 -505 q 325 -454 325 -477 l 325 -454 l 325 -447 l 336 -500 l 480 -500 l 408 -160 q 404 -128 404 -145 l 404 -128 q 445 -85 404 -85 l 445 -85 q 494 -111 473 -85 q 526 -179 514 -137 l 526 -179 l 568 -179 q 477 -32 531 -71 q 367 6 422 6 l 367 6 q 300 -17 325 6 q 269 -86 274 -41 l 269 -86 q 205 -19 240 -45 q 120 6 169 6 l 120 6 z m 185 -91 q 235 -114 210 -91 q 268 -179 259 -138 l 268 -179 l 316 -405 q 306 -430 316 -418 q 275 -443 296 -443 l 275 -443 q 203 -396 235 -443 q 153 -284 171 -350 q 135 -169 135 -219 l 135 -169 q 150 -105 135 -119 q 185 -91 164 -91 l 185 -91 z"},"à":{"ha":526,"x_min":-13,"x_max":568,"o":"m 275 -561 l 216 -750 l 321 -750 l 350 -561 l 275 -561 z m 120 6 q 25 -33 63 6 q -13 -155 -13 -72 l -13 -155 q 17 -310 -13 -229 q 105 -448 46 -392 q 244 -505 163 -505 l 244 -505 q 305 -491 285 -505 q 325 -454 325 -477 l 325 -454 l 325 -447 l 336 -500 l 480 -500 l 408 -160 q 404 -128 404 -145 l 404 -128 q 445 -85 404 -85 l 445 -85 q 494 -111 473 -85 q 526 -179 514 -137 l 526 -179 l 568 -179 q 477 -32 531 -71 q 367 6 422 6 l 367 6 q 300 -17 325 6 q 269 -86 274 -41 l 269 -86 q 205 -19 240 -45 q 120 6 169 6 l 120 6 z m 185 -91 q 235 -114 210 -91 q 268 -179 259 -138 l 268 -179 l 316 -405 q 306 -430 316 -418 q 275 -443 296 -443 l 275 -443 q 203 -396 235 -443 q 153 -284 171 -350 q 135 -169 135 -219 l 135 -169 q 150 -105 135 -119 q 185 -91 164 -91 l 185 -91 z"},"å":{"ha":526,"x_min":-13,"x_max":568,"o":"m 304 -552 q 253 -572 272 -552 q 234 -622 234 -592 l 234 -622 q 256 -683 234 -654 q 319 -713 278 -713 l 319 -713 q 373 -691 354 -713 q 391 -636 391 -670 l 391 -636 q 370 -576 391 -600 q 304 -552 348 -552 l 304 -552 z m 308 -587 q 343 -599 331 -587 q 354 -633 354 -611 l 354 -633 q 348 -667 354 -654 q 321 -680 342 -680 l 321 -680 q 286 -663 297 -680 q 274 -624 274 -646 l 274 -624 q 308 -587 274 -587 l 308 -587 z m 120 6 q 25 -33 63 6 q -13 -155 -13 -72 l -13 -155 q 17 -310 -13 -229 q 105 -448 46 -392 q 244 -505 163 -505 l 244 -505 q 305 -491 285 -505 q 325 -454 325 -477 l 325 -454 l 325 -447 l 336 -500 l 480 -500 l 408 -160 q 404 -128 404 -145 l 404 -128 q 445 -85 404 -85 l 445 -85 q 494 -111 473 -85 q 526 -179 514 -137 l 526 -179 l 568 -179 q 477 -32 531 -71 q 367 6 422 6 l 367 6 q 300 -17 325 6 q 269 -86 274 -41 l 269 -86 q 205 -19 240 -45 q 120 6 169 6 l 120 6 z m 185 -91 q 235 -114 210 -91 q 268 -179 259 -138 l 268 -179 l 316 -405 q 306 -430 316 -418 q 275 -443 296 -443 l 275 -443 q 203 -396 235 -443 q 153 -284 171 -350 q 135 -169 135 -219 l 135 -169 q 150 -105 135 -119 q 185 -91 164 -91 l 185 -91 z"},"ã":{"ha":526,"x_min":-13,"x_max":568,"o":"m 361 -569 q 318 -574 338 -569 q 270 -589 298 -579 l 270 -589 q 226 -602 241 -598 q 193 -606 211 -606 l 193 -606 q 127 -580 156 -606 l 127 -580 l 122 -582 q 188 -655 145 -630 q 289 -680 231 -680 l 289 -680 q 335 -675 314 -680 q 380 -662 355 -671 l 380 -662 q 419 -650 403 -654 q 454 -647 435 -647 l 454 -647 q 517 -670 492 -647 l 517 -670 l 522 -669 q 494 -622 518 -646 q 434 -584 469 -599 q 361 -569 398 -569 l 361 -569 z m 120 6 q 25 -33 63 6 q -13 -155 -13 -72 l -13 -155 q 17 -310 -13 -229 q 105 -448 46 -392 q 244 -505 163 -505 l 244 -505 q 305 -491 285 -505 q 325 -454 325 -477 l 325 -454 l 325 -447 l 336 -500 l 480 -500 l 408 -160 q 404 -128 404 -145 l 404 -128 q 445 -85 404 -85 l 445 -85 q 494 -111 473 -85 q 526 -179 514 -137 l 526 -179 l 568 -179 q 477 -32 531 -71 q 367 6 422 6 l 367 6 q 300 -17 325 6 q 269 -86 274 -41 l 269 -86 q 205 -19 240 -45 q 120 6 169 6 l 120 6 z m 185 -91 q 235 -114 210 -91 q 268 -179 259 -138 l 268 -179 l 316 -405 q 306 -430 316 -418 q 275 -443 296 -443 l 275 -443 q 203 -396 235 -443 q 153 -284 171 -350 q 135 -169 135 -219 l 135 -169 q 150 -105 135 -119 q 185 -91 164 -91 l 185 -91 z"},"æ":{"ha":650,"x_min":-8,"x_max":684,"o":"m 119 6 q 29 -23 65 6 q -8 -124 -8 -52 l -8 -124 q 52 -251 -8 -212 q 214 -290 112 -290 l 214 -290 q 266 -286 250 -290 l 266 -286 q 287 -374 287 -331 l 287 -374 q 272 -425 287 -406 q 226 -445 257 -445 l 226 -445 q 157 -433 184 -445 q 105 -398 130 -421 l 105 -398 l 77 -427 q 143 -479 112 -462 q 199 -500 173 -496 q 259 -505 224 -505 l 259 -505 q 389 -465 339 -505 l 389 -465 q 524 -509 448 -509 l 524 -509 q 610 -482 586 -509 q 633 -410 633 -456 l 633 -410 q 601 -309 633 -356 q 516 -234 569 -263 q 403 -202 463 -206 l 403 -202 q 401 -170 401 -180 l 401 -170 q 416 -97 401 -117 q 461 -78 431 -78 l 461 -78 q 539 -90 507 -78 q 592 -121 570 -102 q 650 -179 614 -140 l 650 -179 l 684 -179 q 408 4 572 4 l 408 4 q 261 -90 287 4 l 261 -90 q 205 -19 237 -45 q 119 6 173 6 l 119 6 z m 410 -250 q 482 -276 448 -252 q 536 -336 515 -300 q 556 -412 556 -373 l 556 -412 q 551 -445 556 -434 q 532 -456 546 -456 l 532 -456 q 462 -393 495 -456 q 410 -250 428 -331 l 410 -250 z m 179 -91 q 225 -120 206 -91 q 259 -228 244 -150 l 259 -228 q 242 -229 252 -229 l 242 -229 q 163 -205 193 -229 q 133 -141 133 -181 l 133 -141 q 148 -101 133 -112 q 179 -91 163 -91 l 179 -91 z"},"b":{"ha":444,"x_min":-7,"x_max":407,"o":"m 133 6 q 29 -27 65 6 q -7 -122 -7 -61 l -7 -122 q 0 -179 -7 -152 l 0 -179 l 107 -680 l 255 -700 l 207 -475 q 253 -497 235 -492 q 289 -503 271 -503 l 289 -503 q 407 -332 407 -503 l 407 -332 q 381 -184 407 -263 q 293 -50 354 -106 q 133 6 231 6 l 133 6 z m 189 -91 q 247 -129 220 -91 q 290 -225 274 -168 q 306 -336 306 -283 l 306 -336 q 292 -404 306 -376 q 253 -432 278 -432 l 253 -432 q 220 -427 238 -432 q 194 -414 201 -423 l 194 -414 l 139 -160 q 136 -137 136 -148 l 136 -137 q 189 -91 136 -91 l 189 -91 z"},"c":{"ha":384,"x_min":-13,"x_max":418,"o":"m 143 6 q 28 -32 69 6 q -13 -153 -13 -71 l -13 -153 q 15 -305 -13 -222 q 103 -448 42 -388 q 256 -509 163 -509 l 256 -509 q 342 -483 316 -509 q 367 -417 367 -457 l 367 -417 q 352 -363 367 -382 q 314 -344 337 -344 l 314 -344 q 279 -356 297 -344 l 279 -356 q 291 -415 291 -389 l 291 -415 q 284 -445 291 -434 q 263 -456 277 -456 l 263 -456 q 203 -407 233 -456 q 154 -288 173 -358 q 135 -162 135 -218 l 135 -162 q 152 -95 135 -113 q 207 -78 169 -78 l 207 -78 q 300 -103 261 -78 q 384 -179 338 -128 l 384 -179 l 418 -179 q 143 6 307 6 l 143 6 z"},"ç":{"ha":384,"x_min":-13,"x_max":418,"o":"m 185 218 q 128 211 151 218 q 78 190 105 204 l 78 190 q 118 158 96 158 l 118 158 q 142 162 133 158 q 161 173 150 166 l 161 173 q 192 185 179 185 l 192 185 q 213 172 204 185 q 222 143 222 159 l 222 143 q 213 117 222 127 q 183 107 203 107 l 183 107 q 155 110 165 107 q 131 119 144 113 l 131 119 l 172 4 q 143 6 154 6 l 143 6 q 28 -32 69 6 q -13 -153 -13 -71 l -13 -153 q 15 -305 -13 -222 q 103 -448 42 -388 q 256 -509 163 -509 l 256 -509 q 342 -483 316 -509 q 367 -417 367 -457 l 367 -417 q 352 -363 367 -382 q 314 -344 337 -344 l 314 -344 q 279 -356 297 -344 l 279 -356 q 291 -415 291 -389 l 291 -415 q 284 -445 291 -434 q 263 -456 277 -456 l 263 -456 q 203 -407 233 -456 q 154 -288 173 -358 q 135 -162 135 -218 l 135 -162 q 152 -95 135 -113 q 207 -78 169 -78 l 207 -78 q 300 -103 261 -78 q 384 -179 338 -128 l 384 -179 l 418 -179 q 219 -5 333 -39 l 219 -5 l 190 66 q 243 58 224 58 l 243 58 q 305 108 305 58 l 305 108 q 269 189 305 159 q 185 218 233 218 l 185 218 z"},"d":{"ha":525,"x_min":-13,"x_max":567,"o":"m 120 6 q 25 -33 63 6 q -13 -155 -13 -72 l -13 -155 q 17 -310 -13 -229 q 105 -448 46 -392 q 244 -505 163 -505 l 244 -505 q 305 -491 285 -505 q 325 -454 325 -477 l 325 -454 l 325 -450 l 374 -680 l 522 -700 l 407 -160 q 403 -128 403 -145 l 403 -128 q 413 -99 403 -108 q 444 -91 422 -91 l 444 -91 q 493 -115 472 -91 q 525 -179 513 -139 l 525 -179 l 567 -179 q 366 0 506 0 l 366 0 q 300 -22 325 0 q 268 -86 274 -44 l 268 -86 q 206 -20 242 -46 q 120 6 169 6 l 120 6 z m 185 -91 q 234 -113 209 -91 q 267 -174 258 -135 l 267 -174 l 267 -179 l 316 -408 q 275 -443 307 -443 l 275 -443 q 203 -396 235 -443 q 153 -284 171 -350 q 135 -169 135 -219 l 135 -169 q 150 -105 135 -119 q 185 -91 164 -91 l 185 -91 z"},"ð":{"ha":526,"x_min":-13,"x_max":568,"o":"m 526 -179 l 568 -179 q 367 0 507 0 l 367 0 q 301 -22 326 0 q 269 -87 275 -44 l 269 -87 q 120 6 208 6 l 120 6 q 25 -33 63 6 q -13 -155 -13 -72 l -13 -155 q 17 -310 -13 -229 q 105 -448 46 -392 q 244 -505 163 -505 l 244 -505 q 307 -490 286 -505 q 328 -448 328 -475 l 328 -448 q 336 -539 336 -501 l 336 -539 q 331 -595 336 -573 l 331 -595 l 210 -563 l 198 -614 l 315 -647 q 269 -718 297 -684 l 269 -718 l 356 -750 q 419 -677 394 -718 l 419 -677 l 530 -708 l 543 -652 l 446 -626 q 470 -494 470 -565 l 470 -494 q 459 -396 470 -449 l 459 -396 l 408 -160 q 404 -128 404 -145 l 404 -128 q 414 -99 404 -108 q 445 -91 423 -91 l 445 -91 q 494 -115 473 -91 q 526 -179 514 -139 l 526 -179 z m 268 -179 l 316 -405 q 306 -430 316 -417 q 275 -443 296 -443 l 275 -443 q 203 -396 235 -443 q 153 -284 171 -350 q 135 -169 135 -219 l 135 -169 q 150 -105 135 -119 q 185 -91 164 -91 l 185 -91 q 235 -114 210 -91 q 268 -179 259 -138 l 268 -179 z"},"e":{"ha":384,"x_min":-13,"x_max":418,"o":"m 143 6 q 28 -32 69 6 q -13 -153 -13 -71 l -13 -153 q 14 -305 -13 -222 q 102 -448 41 -388 q 257 -509 163 -509 l 257 -509 q 367 -413 367 -509 l 367 -413 q 335 -310 367 -357 q 250 -234 303 -263 q 137 -202 197 -206 l 137 -202 q 135 -162 135 -172 l 135 -162 q 152 -95 135 -113 q 207 -78 169 -78 l 207 -78 q 300 -103 261 -78 q 384 -179 338 -128 l 384 -179 l 418 -179 q 143 6 307 6 l 143 6 z m 145 -250 q 216 -276 182 -252 q 270 -337 249 -300 q 290 -415 290 -374 l 290 -415 q 265 -456 290 -456 l 265 -456 q 195 -393 229 -456 q 145 -250 160 -330 l 145 -250 z"},"é":{"ha":384,"x_min":-13,"x_max":419,"o":"m 223 -561 l 314 -750 l 419 -750 l 298 -561 l 223 -561 z m 143 6 q 28 -32 69 6 q -13 -153 -13 -71 l -13 -153 q 14 -305 -13 -222 q 102 -448 41 -388 q 257 -509 163 -509 l 257 -509 q 367 -413 367 -509 l 367 -413 q 335 -310 367 -357 q 250 -234 303 -263 q 137 -202 197 -206 l 137 -202 q 135 -162 135 -172 l 135 -162 q 152 -95 135 -113 q 207 -78 169 -78 l 207 -78 q 300 -103 261 -78 q 384 -179 338 -128 l 384 -179 l 418 -179 q 143 6 307 6 l 143 6 z m 145 -250 q 216 -276 182 -252 q 270 -337 249 -300 q 290 -415 290 -374 l 290 -415 q 265 -456 290 -456 l 265 -456 q 195 -393 229 -456 q 145 -250 160 -330 l 145 -250 z"},"ê":{"ha":384,"x_min":-13,"x_max":418,"o":"m 105 -561 l 317 -750 l 338 -750 l 398 -561 l 366 -561 l 306 -641 l 149 -561 l 105 -561 z m 143 6 q 28 -32 69 6 q -13 -153 -13 -71 l -13 -153 q 14 -305 -13 -222 q 102 -448 41 -388 q 257 -509 163 -509 l 257 -509 q 367 -413 367 -509 l 367 -413 q 335 -310 367 -357 q 250 -234 303 -263 q 137 -202 197 -206 l 137 -202 q 135 -162 135 -172 l 135 -162 q 152 -95 135 -113 q 207 -78 169 -78 l 207 -78 q 300 -103 261 -78 q 384 -179 338 -128 l 384 -179 l 418 -179 q 143 6 307 6 l 143 6 z m 145 -250 q 216 -276 182 -252 q 270 -337 249 -300 q 290 -415 290 -374 l 290 -415 q 265 -456 290 -456 l 265 -456 q 195 -393 229 -456 q 145 -250 160 -330 l 145 -250 z"},"ë":{"ha":384,"x_min":-13,"x_max":421,"o":"m 180 -573 q 137 -590 154 -573 q 119 -634 119 -608 l 119 -634 q 137 -677 119 -659 q 180 -695 154 -695 l 180 -695 q 223 -677 205 -695 q 241 -634 241 -659 l 241 -634 q 223 -590 241 -608 q 180 -573 205 -573 l 180 -573 z m 360 -573 q 317 -590 334 -573 q 299 -634 299 -608 l 299 -634 q 317 -677 299 -659 q 360 -695 334 -695 l 360 -695 q 403 -677 385 -695 q 421 -634 421 -659 l 421 -634 q 403 -590 421 -608 q 360 -573 385 -573 l 360 -573 z m 143 6 q 28 -32 69 6 q -13 -153 -13 -71 l -13 -153 q 14 -305 -13 -222 q 102 -448 41 -388 q 257 -509 163 -509 l 257 -509 q 367 -413 367 -509 l 367 -413 q 335 -310 367 -357 q 250 -234 303 -263 q 137 -202 197 -206 l 137 -202 q 135 -162 135 -172 l 135 -162 q 152 -95 135 -113 q 207 -78 169 -78 l 207 -78 q 300 -103 261 -78 q 384 -179 338 -128 l 384 -179 l 418 -179 q 143 6 307 6 l 143 6 z m 145 -250 q 216 -276 182 -252 q 270 -337 249 -300 q 290 -415 290 -374 l 290 -415 q 265 -456 290 -456 l 265 -456 q 195 -393 229 -456 q 145 -250 160 -330 l 145 -250 z"},"è":{"ha":384,"x_min":-13,"x_max":418,"o":"m 217 -561 l 158 -750 l 263 -750 l 292 -561 l 217 -561 z m 143 6 q 28 -32 69 6 q -13 -153 -13 -71 l -13 -153 q 14 -305 -13 -222 q 102 -448 41 -388 q 257 -509 163 -509 l 257 -509 q 367 -413 367 -509 l 367 -413 q 335 -310 367 -357 q 250 -234 303 -263 q 137 -202 197 -206 l 137 -202 q 135 -162 135 -172 l 135 -162 q 152 -95 135 -113 q 207 -78 169 -78 l 207 -78 q 300 -103 261 -78 q 384 -179 338 -128 l 384 -179 l 418 -179 q 143 6 307 6 l 143 6 z m 145 -250 q 216 -276 182 -252 q 270 -337 249 -300 q 290 -415 290 -374 l 290 -415 q 265 -456 290 -456 l 265 -456 q 195 -393 229 -456 q 145 -250 160 -330 l 145 -250 z"},"f":{"ha":267,"x_min":-208,"x_max":385,"o":"m -90 250 q -172 220 -137 250 q -208 142 -208 189 l -208 142 q -186 71 -208 99 q -129 27 -164 43 q -36 -8 -94 10 l -36 -8 l 85 -579 q 156 -712 105 -675 q 267 -749 206 -749 l 267 -749 q 350 -718 314 -749 q 385 -641 385 -688 l 385 -641 q 382 -600 385 -618 l 382 -600 l 335 -600 q 337 -627 337 -622 l 337 -627 q 326 -652 337 -643 q 299 -661 315 -661 l 299 -661 q 258 -642 278 -661 q 229 -579 238 -624 l 229 -579 l 212 -500 l 285 -500 l 278 -460 l 204 -460 l 89 80 q 20 214 69 177 q -90 250 -29 250 l -90 250 z m -113 161 q -56 83 -73 161 l -56 83 l -43 25 q -124 67 -96 43 q -153 128 -153 90 l -153 128 q -141 151 -153 140 q -113 161 -129 161 l -113 161 z"},"g":{"ha":507,"x_min":-13,"x_max":549,"o":"m 177 250 q 97 225 129 250 q 65 153 65 200 l 65 153 q 111 62 65 96 q 228 4 157 27 l 228 4 l 240 -49 q 120 6 189 6 l 120 6 q 25 -33 63 6 q -13 -155 -13 -72 l -13 -155 q 17 -310 -13 -229 q 105 -448 46 -392 q 244 -505 163 -505 l 244 -505 q 305 -491 285 -505 q 325 -454 325 -477 l 325 -454 l 325 -448 l 336 -500 l 480 -500 l 381 -36 q 458 -84 429 -52 q 507 -179 487 -116 l 507 -179 l 549 -179 q 476 -48 522 -90 q 372 8 430 -7 l 372 8 l 357 80 q 288 214 337 177 q 177 250 239 250 l 177 250 z m 185 -91 q 232 -112 208 -91 q 265 -169 256 -133 l 265 -169 l 316 -406 q 306 -430 316 -418 q 275 -443 296 -443 l 275 -443 q 203 -396 235 -443 q 153 -284 171 -350 q 135 -169 135 -219 l 135 -169 q 150 -105 135 -119 q 185 -91 164 -91 l 185 -91 z m 154 172 q 187 149 171 172 q 212 83 203 126 l 212 83 l 218 54 q 120 139 120 90 l 120 139 q 129 162 120 152 q 154 172 138 172 l 154 172 z"},"h":{"ha":505,"x_min":-38,"x_max":547,"o":"m 361 6 q 272 -26 300 6 q 243 -107 243 -59 l 243 -107 q 248 -154 243 -128 q 259 -206 253 -181 q 266 -238 264 -231 l 266 -238 q 281 -307 274 -273 q 288 -362 288 -341 l 288 -362 q 252 -413 288 -413 l 252 -413 q 206 -387 226 -413 q 174 -321 186 -362 l 174 -321 l 106 0 l -38 0 l 107 -680 l 255 -700 l 201 -448 q 318 -504 251 -504 l 318 -504 q 399 -476 369 -504 q 429 -391 429 -448 l 429 -391 q 422 -326 429 -362 q 402 -240 415 -291 l 402 -240 q 388 -179 394 -209 q 381 -133 381 -150 l 381 -133 q 390 -102 381 -113 q 421 -91 399 -91 l 421 -91 q 469 -112 451 -91 q 505 -179 487 -134 l 505 -179 l 547 -179 q 462 -31 510 -69 q 361 6 413 6 l 361 6 z"},"i":{"ha":267,"x_min":-8,"x_max":309,"o":"m 167 -554 q 111 -577 134 -554 q 88 -633 88 -600 l 88 -633 q 111 -689 88 -666 q 167 -713 134 -713 l 167 -713 q 224 -689 200 -713 q 247 -633 247 -666 l 247 -633 q 224 -577 247 -600 q 167 -554 200 -554 l 167 -554 z m 99 6 q 22 -24 51 6 q -8 -114 -8 -54 l -8 -114 q 0 -179 -8 -139 l 0 -179 l 68 -500 l 212 -500 l 140 -160 q 136 -128 136 -145 l 136 -128 q 146 -99 136 -108 q 177 -91 155 -91 l 177 -91 q 231 -115 206 -91 q 267 -179 256 -140 l 267 -179 l 309 -179 q 214 -32 272 -71 q 99 6 156 6 l 99 6 z"},"í":{"ha":267,"x_min":-8,"x_max":309,"o":"m 111 -561 l 202 -750 l 307 -750 l 186 -561 l 111 -561 z m 99 6 q 22 -24 51 6 q -8 -114 -8 -54 l -8 -114 q 0 -179 -8 -139 l 0 -179 l 68 -500 l 212 -500 l 140 -160 q 136 -128 136 -145 l 136 -128 q 146 -99 136 -108 q 177 -91 155 -91 l 177 -91 q 231 -115 206 -91 q 267 -179 256 -140 l 267 -179 l 309 -179 q 214 -32 272 -71 q 99 6 156 6 l 99 6 z"},"î":{"ha":267,"x_min":-8,"x_max":309,"o":"m 1 -561 l 213 -750 l 234 -750 l 294 -561 l 262 -561 l 202 -641 l 45 -561 l 1 -561 z m 99 6 q 22 -24 51 6 q -8 -114 -8 -54 l -8 -114 q 0 -179 -8 -139 l 0 -179 l 68 -500 l 212 -500 l 140 -160 q 136 -128 136 -145 l 136 -128 q 146 -99 136 -108 q 177 -91 155 -91 l 177 -91 q 231 -115 206 -91 q 267 -179 256 -140 l 267 -179 l 309 -179 q 214 -32 272 -71 q 99 6 156 6 l 99 6 z"},"ï":{"ha":267,"x_min":-8,"x_max":309,"o":"m 78 -573 q 35 -590 52 -573 q 17 -634 17 -608 l 17 -634 q 35 -677 17 -659 q 78 -695 52 -695 l 78 -695 q 121 -677 103 -695 q 139 -634 139 -659 l 139 -634 q 121 -590 139 -608 q 78 -573 103 -573 l 78 -573 z m 248 -573 q 205 -590 222 -573 q 187 -634 187 -608 l 187 -634 q 205 -677 187 -659 q 248 -695 222 -695 l 248 -695 q 291 -677 273 -695 q 309 -634 309 -659 l 309 -634 q 291 -590 309 -608 q 248 -573 273 -573 l 248 -573 z m 99 6 q 22 -24 51 6 q -8 -114 -8 -54 l -8 -114 q 0 -179 -8 -139 l 0 -179 l 68 -500 l 212 -500 l 140 -160 q 136 -128 136 -145 l 136 -128 q 146 -99 136 -108 q 177 -91 155 -91 l 177 -91 q 231 -115 206 -91 q 267 -179 256 -140 l 267 -179 l 309 -179 q 214 -32 272 -71 q 99 6 156 6 l 99 6 z"},"ì":{"ha":267,"x_min":-8,"x_max":309,"o":"m 115 -561 l 56 -750 l 161 -750 l 190 -561 l 115 -561 z m 99 6 q 22 -24 51 6 q -8 -114 -8 -54 l -8 -114 q 0 -179 -8 -139 l 0 -179 l 68 -500 l 212 -500 l 140 -160 q 136 -128 136 -145 l 136 -128 q 146 -99 136 -108 q 177 -91 155 -91 l 177 -91 q 231 -115 206 -91 q 267 -179 256 -140 l 267 -179 l 309 -179 q 214 -32 272 -71 q 99 6 156 6 l 99 6 z"},"j":{"ha":240,"x_min":-202,"x_max":282,"o":"m 159 -555 q 103 -578 126 -555 q 80 -634 80 -601 l 80 -634 q 103 -690 80 -667 q 159 -714 126 -714 l 159 -714 q 216 -690 192 -714 q 239 -634 239 -667 l 239 -634 q 216 -578 239 -601 q 159 -555 192 -555 l 159 -555 z m -90 250 q -170 225 -138 250 q -202 153 -202 200 l -202 153 q -38 4 -202 56 l -38 4 l 69 -500 l 213 -500 l 114 -36 q 191 -84 162 -52 q 240 -179 220 -116 l 240 -179 l 282 -179 q 209 -48 255 -90 q 105 8 163 -7 l 105 8 l 90 80 q 21 214 70 177 q -90 250 -28 250 l -90 250 z m -113 172 q -80 149 -96 172 q -55 83 -64 126 l -55 83 l -49 54 q -147 139 -147 90 l -147 139 q -138 162 -147 152 q -113 172 -129 172 l -113 172 z"},"k":{"ha":518,"x_min":-38,"x_max":560,"o":"m 376 6 q 282 -23 314 6 q 250 -108 250 -53 l 250 -108 q 256 -160 250 -132 l 256 -160 l 264 -199 q 268 -236 268 -216 l 268 -236 q 232 -284 268 -284 l 232 -284 q 199 -275 216 -284 q 158 -247 181 -266 l 158 -247 l 106 0 l -38 0 l 107 -680 l 255 -700 l 180 -348 l 373 -500 l 472 -500 l 272 -361 q 305 -365 287 -365 l 305 -365 q 387 -332 359 -365 q 415 -248 415 -299 l 415 -248 q 411 -210 415 -227 l 411 -210 l 400 -160 q 395 -128 395 -142 l 395 -128 q 434 -91 395 -91 l 434 -91 q 482 -112 464 -91 q 518 -179 500 -134 l 518 -179 l 560 -179 q 376 6 498 6 l 376 6 z"},"l":{"ha":267,"x_min":-8,"x_max":309,"o":"m 99 6 q 22 -24 51 6 q -8 -114 -8 -54 l -8 -114 q 0 -179 -8 -139 l 0 -179 l 107 -680 l 255 -700 l 140 -160 q 136 -128 136 -145 l 136 -128 q 146 -99 136 -108 q 177 -91 155 -91 l 177 -91 q 231 -115 206 -91 q 267 -179 256 -140 l 267 -179 l 309 -179 q 214 -32 272 -71 q 99 6 156 6 l 99 6 z"},"m":{"ha":752,"x_min":-38,"x_max":794,"o":"m 608 6 q 519 -26 547 6 q 490 -107 490 -59 l 490 -107 q 495 -154 490 -128 q 506 -206 500 -181 q 513 -238 511 -231 l 513 -238 q 528 -307 521 -273 q 535 -362 535 -341 l 535 -362 q 499 -413 535 -413 l 499 -413 q 453 -387 473 -413 q 421 -321 433 -362 l 421 -321 l 353 0 l 209 0 l 282 -345 q 285 -370 285 -357 l 285 -370 q 255 -414 285 -414 l 255 -414 q 207 -388 227 -414 q 174 -321 186 -363 l 174 -321 l 106 0 l -38 0 l 68 -500 l 212 -500 l 201 -448 q 323 -505 252 -505 l 323 -505 q 426 -419 411 -505 l 426 -419 q 565 -504 481 -504 l 565 -504 q 646 -476 616 -504 q 676 -391 676 -448 l 676 -391 q 669 -326 676 -362 q 649 -240 662 -291 l 649 -240 q 635 -179 641 -209 q 628 -133 628 -150 l 628 -133 q 637 -102 628 -113 q 668 -91 646 -91 l 668 -91 q 716 -112 698 -91 q 752 -179 734 -134 l 752 -179 l 794 -179 q 709 -31 757 -69 q 608 6 660 6 l 608 6 z"},"n":{"ha":505,"x_min":-38,"x_max":547,"o":"m 361 6 q 272 -26 300 6 q 243 -107 243 -59 l 243 -107 q 248 -154 243 -128 q 259 -206 253 -181 q 266 -238 264 -231 l 266 -238 q 281 -307 274 -273 q 288 -362 288 -341 l 288 -362 q 252 -413 288 -413 l 252 -413 q 206 -387 226 -413 q 174 -321 186 -362 l 174 -321 l 106 0 l -38 0 l 68 -500 l 212 -500 l 201 -448 q 318 -504 251 -504 l 318 -504 q 399 -476 369 -504 q 429 -391 429 -448 l 429 -391 q 422 -326 429 -362 q 402 -240 415 -291 l 402 -240 q 388 -179 394 -209 q 381 -133 381 -150 l 381 -133 q 390 -102 381 -113 q 421 -91 399 -91 l 421 -91 q 469 -112 451 -91 q 505 -179 487 -134 l 505 -179 l 547 -179 q 462 -31 510 -69 q 361 6 413 6 l 361 6 z"},"ñ":{"ha":505,"x_min":-38,"x_max":547,"o":"m 328 -569 q 284 -574 305 -569 q 236 -589 263 -579 l 236 -589 q 196 -601 213 -597 q 160 -606 178 -606 l 160 -606 q 94 -580 123 -606 l 94 -580 l 88 -582 q 155 -655 112 -630 q 255 -680 198 -680 l 255 -680 q 301 -675 280 -680 q 347 -662 322 -671 l 347 -662 q 420 -647 390 -647 l 420 -647 q 483 -670 460 -647 l 483 -670 l 489 -669 q 460 -622 484 -646 q 400 -584 435 -599 q 328 -569 365 -569 l 328 -569 z m 361 6 q 272 -26 300 6 q 243 -107 243 -59 l 243 -107 q 248 -154 243 -128 q 259 -206 253 -181 q 266 -238 264 -231 l 266 -238 q 281 -307 274 -273 q 288 -362 288 -341 l 288 -362 q 252 -413 288 -413 l 252 -413 q 206 -387 226 -413 q 174 -321 186 -362 l 174 -321 l 106 0 l -38 0 l 68 -500 l 212 -500 l 201 -448 q 318 -504 251 -504 l 318 -504 q 399 -476 369 -504 q 429 -391 429 -448 l 429 -391 q 422 -326 429 -362 q 402 -240 415 -291 l 402 -240 q 388 -179 394 -209 q 381 -133 381 -150 l 381 -133 q 390 -102 381 -113 q 421 -91 399 -91 l 421 -91 q 469 -112 451 -91 q 505 -179 487 -134 l 505 -179 l 547 -179 q 462 -31 510 -69 q 361 6 413 6 l 361 6 z"},"o":{"ha":439,"x_min":-14,"x_max":562,"o":"m 146 4 q 29 -34 72 4 q -14 -154 -14 -72 l -14 -154 q 14 -305 -14 -222 q 104 -448 42 -388 q 260 -509 166 -509 l 260 -509 q 388 -349 388 -509 l 388 -349 l 388 -348 q 399 -347 391 -347 l 399 -347 q 475 -364 432 -347 q 553 -407 518 -382 l 553 -407 l 562 -380 q 487 -327 533 -349 q 385 -297 440 -306 l 385 -297 q 344 -138 377 -206 q 259 -33 311 -70 q 146 4 207 4 l 146 4 z m 186 -86 q 234 -113 210 -86 q 276 -188 258 -141 q 302 -294 294 -236 l 302 -294 q 275 -336 275 -300 l 275 -336 q 306 -390 275 -377 l 306 -390 q 296 -435 304 -423 q 268 -448 288 -448 l 268 -448 q 204 -400 235 -448 q 154 -285 173 -352 q 135 -167 135 -218 l 135 -167 q 146 -102 135 -119 q 186 -86 157 -86 l 186 -86 z"},"ó":{"ha":439,"x_min":-14,"x_max":562,"o":"m 225 -561 l 316 -750 l 421 -750 l 300 -561 l 225 -561 z m 146 4 q 29 -34 72 4 q -14 -154 -14 -72 l -14 -154 q 14 -305 -14 -222 q 104 -448 42 -388 q 260 -509 166 -509 l 260 -509 q 388 -349 388 -509 l 388 -349 l 388 -348 q 399 -347 391 -347 l 399 -347 q 475 -364 432 -347 q 553 -407 518 -382 l 553 -407 l 562 -380 q 487 -327 533 -349 q 385 -297 440 -306 l 385 -297 q 344 -138 377 -206 q 259 -33 311 -70 q 146 4 207 4 l 146 4 z m 186 -86 q 234 -113 210 -86 q 276 -188 258 -141 q 302 -294 294 -236 l 302 -294 q 275 -336 275 -300 l 275 -336 q 306 -390 275 -377 l 306 -390 q 296 -435 304 -423 q 268 -448 288 -448 l 268 -448 q 204 -400 235 -448 q 154 -285 173 -352 q 135 -167 135 -218 l 135 -167 q 146 -102 135 -119 q 186 -86 157 -86 l 186 -86 z"},"ô":{"ha":433,"x_min":-20,"x_max":556,"o":"m 95 -561 l 307 -750 l 328 -750 l 388 -561 l 356 -561 l 296 -641 l 139 -561 l 95 -561 z m 140 4 q 23 -34 66 4 q -20 -154 -20 -72 l -20 -154 q 8 -305 -20 -222 q 98 -448 36 -388 q 254 -509 160 -509 l 254 -509 q 382 -349 382 -509 l 382 -349 l 382 -348 q 393 -347 385 -347 l 393 -347 q 469 -364 426 -347 q 547 -407 512 -382 l 547 -407 l 556 -380 q 481 -327 527 -349 q 379 -297 434 -306 l 379 -297 q 338 -138 371 -206 q 253 -33 305 -70 q 140 4 201 4 l 140 4 z m 180 -86 q 228 -113 204 -86 q 270 -188 252 -141 q 296 -294 288 -236 l 296 -294 q 269 -336 269 -300 l 269 -336 q 300 -390 269 -377 l 300 -390 q 290 -435 298 -423 q 262 -448 282 -448 l 262 -448 q 198 -400 229 -448 q 148 -285 167 -352 q 129 -167 129 -218 l 129 -167 q 140 -102 129 -119 q 180 -86 151 -86 l 180 -86 z"},"ö":{"ha":433,"x_min":-20,"x_max":556,"o":"m 166 -573 q 123 -590 140 -573 q 105 -634 105 -608 l 105 -634 q 123 -677 105 -659 q 166 -695 140 -695 l 166 -695 q 209 -677 191 -695 q 227 -634 227 -659 l 227 -634 q 209 -590 227 -608 q 166 -573 191 -573 l 166 -573 z m 346 -573 q 303 -590 320 -573 q 285 -634 285 -608 l 285 -634 q 303 -677 285 -659 q 346 -695 320 -695 l 346 -695 q 389 -677 371 -695 q 407 -634 407 -659 l 407 -634 q 389 -590 407 -608 q 346 -573 371 -573 l 346 -573 z m 140 4 q 23 -34 66 4 q -20 -154 -20 -72 l -20 -154 q 8 -305 -20 -222 q 98 -448 36 -388 q 254 -509 160 -509 l 254 -509 q 382 -349 382 -509 l 382 -349 l 382 -348 q 393 -347 385 -347 l 393 -347 q 469 -364 426 -347 q 547 -407 512 -382 l 547 -407 l 556 -380 q 481 -327 527 -349 q 379 -297 434 -306 l 379 -297 q 338 -138 371 -206 q 253 -33 305 -70 q 140 4 201 4 l 140 4 z m 180 -86 q 228 -113 204 -86 q 270 -188 252 -141 q 296 -294 288 -236 l 296 -294 q 269 -336 269 -300 l 269 -336 q 300 -390 269 -377 l 300 -390 q 290 -435 298 -423 q 262 -448 282 -448 l 262 -448 q 198 -400 229 -448 q 148 -285 167 -352 q 129 -167 129 -218 l 129 -167 q 140 -102 129 -119 q 180 -86 151 -86 l 180 -86 z"},"ò":{"ha":433,"x_min":-20,"x_max":556,"o":"m 238 -561 l 179 -750 l 284 -750 l 313 -561 l 238 -561 z m 140 4 q 23 -34 66 4 q -20 -154 -20 -72 l -20 -154 q 8 -305 -20 -222 q 98 -448 36 -388 q 254 -509 160 -509 l 254 -509 q 382 -349 382 -509 l 382 -349 l 382 -348 q 393 -347 385 -347 l 393 -347 q 469 -364 426 -347 q 547 -407 512 -382 l 547 -407 l 556 -380 q 481 -327 527 -349 q 379 -297 434 -306 l 379 -297 q 338 -138 371 -206 q 253 -33 305 -70 q 140 4 201 4 l 140 4 z m 180 -86 q 228 -113 204 -86 q 270 -188 252 -141 q 296 -294 288 -236 l 296 -294 q 269 -336 269 -300 l 269 -336 q 300 -390 269 -377 l 300 -390 q 290 -435 298 -423 q 262 -448 282 -448 l 262 -448 q 198 -400 229 -448 q 148 -285 167 -352 q 129 -167 129 -218 l 129 -167 q 140 -102 129 -119 q 180 -86 151 -86 l 180 -86 z"},"ø":{"ha":428,"x_min":-71,"x_max":475,"o":"m 475 -500 l 385 -396 q 389 -337 389 -372 l 389 -337 q 355 -162 389 -241 q 262 -39 321 -84 q 132 6 203 6 l 132 6 q 54 -13 89 6 l 54 -13 l -9 60 l -71 60 l 20 -45 q -13 -171 -13 -90 l -13 -171 q 24 -337 -13 -261 q 124 -459 61 -414 q 261 -505 187 -505 l 261 -505 q 368 -448 339 -505 l 368 -448 l 413 -500 l 475 -500 z m 271 -450 q 211 -409 241 -450 q 159 -306 180 -369 q 136 -180 138 -243 l 136 -180 l 309 -379 q 298 -431 308 -413 q 271 -450 288 -450 l 271 -450 z m 175 -88 q 228 -117 201 -88 q 275 -196 254 -147 q 304 -302 295 -245 l 304 -302 l 142 -115 q 175 -88 151 -88 l 175 -88 z"},"õ":{"ha":433,"x_min":-20,"x_max":556,"o":"m 280 -569 q 236 -574 257 -569 q 188 -589 215 -579 l 188 -589 q 148 -601 165 -597 q 112 -606 130 -606 l 112 -606 q 46 -580 75 -606 l 46 -580 l 40 -582 q 107 -655 64 -630 q 207 -680 150 -680 l 207 -680 q 254 -675 233 -680 q 299 -662 274 -671 l 299 -662 q 372 -647 342 -647 l 372 -647 q 435 -670 412 -647 l 435 -670 l 441 -669 q 412 -622 436 -646 q 352 -584 387 -599 q 280 -569 317 -569 l 280 -569 z m 140 4 q 23 -34 66 4 q -20 -154 -20 -72 l -20 -154 q 8 -305 -20 -222 q 98 -448 36 -388 q 254 -509 160 -509 l 254 -509 q 382 -349 382 -509 l 382 -349 l 382 -348 q 393 -347 385 -347 l 393 -347 q 469 -364 426 -347 q 547 -407 512 -382 l 547 -407 l 556 -380 q 481 -327 527 -349 q 379 -297 434 -306 l 379 -297 q 338 -138 371 -206 q 253 -33 305 -70 q 140 4 201 4 l 140 4 z m 180 -86 q 228 -113 204 -86 q 270 -188 252 -141 q 296 -294 288 -236 l 296 -294 q 269 -336 269 -300 l 269 -336 q 300 -390 269 -377 l 300 -390 q 290 -435 298 -423 q 262 -448 282 -448 l 262 -448 q 198 -400 229 -448 q 148 -285 167 -352 q 129 -167 129 -218 l 129 -167 q 140 -102 129 -119 q 180 -86 151 -86 l 180 -86 z"},"p":{"ha":468,"x_min":-91,"x_max":443,"o":"m -91 250 l 76 -537 l 220 -537 l 204 -462 q 321 -505 254 -505 l 321 -505 q 410 -468 377 -505 q 443 -347 443 -431 l 443 -347 q 420 -187 443 -268 q 342 -50 397 -107 q 197 6 287 6 l 197 6 q 112 -30 133 6 l 112 -30 l 60 214 l -91 250 z m 166 -81 q 246 -126 214 -81 q 292 -233 277 -171 q 306 -350 306 -296 l 306 -350 q 256 -433 306 -433 l 256 -433 q 220 -420 238 -433 q 187 -384 201 -407 l 187 -384 l 128 -104 q 166 -81 136 -81 l 166 -81 z"},"þ":{"ha":473,"x_min":-91,"x_max":443,"o":"m -91 250 l 118 -732 l 266 -752 l 200 -462 l 204 -462 q 321 -505 253 -505 l 321 -505 q 414 -464 384 -505 q 443 -336 443 -423 l 443 -336 q 411 -161 443 -240 q 322 -38 378 -83 q 196 6 266 6 l 196 6 q 143 -3 165 6 q 112 -30 121 -13 l 112 -30 l 60 214 l -91 250 z m 161 -60 q 231 -100 197 -60 q 285 -206 264 -141 q 306 -340 306 -271 l 306 -340 q 257 -433 306 -433 l 257 -433 q 219 -420 237 -433 q 187 -384 201 -408 l 187 -384 l 123 -83 q 137 -66 126 -73 q 161 -60 147 -60 l 161 -60 z"},"q":{"ha":486,"x_min":-13,"x_max":479,"o":"m 176 250 l 239 -49 q 120 6 188 6 l 120 6 q 25 -33 63 6 q -13 -155 -13 -72 l -13 -155 q 17 -310 -13 -229 q 105 -448 46 -392 q 244 -505 163 -505 l 244 -505 q 305 -491 285 -505 q 325 -454 325 -477 l 325 -454 l 325 -452 l 335 -500 l 479 -500 l 327 214 l 176 250 z m 185 -91 q 230 -110 207 -91 q 263 -162 252 -129 l 263 -162 l 316 -409 q 275 -443 308 -443 l 275 -443 q 203 -396 235 -443 q 153 -284 171 -350 q 135 -169 135 -219 l 135 -169 q 150 -105 135 -119 q 185 -91 164 -91 l 185 -91 z"},"r":{"ha":376,"x_min":-38,"x_max":389,"o":"m -38 0 l 68 -500 l 212 -500 l 199 -438 q 261 -484 233 -468 q 320 -500 288 -500 l 320 -500 q 371 -478 352 -500 q 389 -425 389 -456 l 389 -425 q 370 -374 389 -396 q 317 -352 351 -352 l 317 -352 q 288 -362 295 -352 q 276 -393 280 -373 l 276 -393 q 270 -412 273 -406 q 259 -418 267 -418 l 259 -418 q 224 -409 238 -418 q 186 -380 209 -401 l 186 -380 l 106 0 l -38 0 z"},"s":{"ha":382,"x_min":-32,"x_max":424,"o":"m 114 6 q 33 -12 66 6 q -16 -60 0 -31 q -32 -122 -32 -90 l -32 -122 q -16 -179 -32 -155 q 21 -215 -1 -204 l 21 -215 q 89 -356 60 -285 q 144 -511 118 -428 l 144 -511 l 292 -531 q 309 -254 297 -403 l 309 -254 q 314 -167 314 -194 l 314 -167 q 310 -129 314 -144 l 310 -129 q 382 -179 357 -156 l 382 -179 l 424 -179 q 271 -54 360 -105 l 271 -54 q 200 -8 242 -23 q 114 6 157 6 l 114 6 z m 82 -73 q 144 -95 119 -73 q 169 -166 169 -117 l 169 -166 q 163 -250 169 -196 l 163 -250 q 150 -403 153 -364 l 150 -403 q 69 -214 126 -324 l 69 -214 q 92 -179 92 -202 l 92 -179 q 80 -145 92 -160 q 48 -130 67 -130 l 48 -130 q 21 -143 27 -130 l 21 -143 q 36 -90 21 -107 q 82 -73 50 -73 l 82 -73 z"},"ß":{"ha":480,"x_min":-85,"x_max":437,"o":"m -85 250 l 56 -412 q 144 -629 86 -558 q 292 -700 202 -700 l 292 -700 q 385 -674 351 -700 q 419 -603 419 -648 l 419 -603 q 388 -483 419 -545 q 323 -380 356 -421 l 323 -380 q 408 -283 378 -339 q 437 -171 437 -227 l 437 -171 q 415 -82 437 -122 q 348 -18 392 -42 q 240 6 303 6 l 240 6 q 181 -7 201 6 q 160 -45 160 -21 l 160 -45 q 165 -67 160 -56 q 179 -86 170 -79 l 179 -86 q 202 -69 187 -75 q 234 -63 216 -63 l 234 -63 q 295 -101 273 -63 q 317 -193 317 -139 l 317 -193 q 298 -287 317 -243 q 244 -351 279 -332 l 244 -351 q 281 -411 260 -368 q 318 -502 302 -454 q 333 -586 333 -551 l 333 -586 q 294 -638 333 -638 l 294 -638 q 262 -619 276 -638 q 235 -557 248 -601 q 205 -434 222 -514 l 205 -434 l 66 214 l -85 250 z"},"t":{"ha":267,"x_min":-8,"x_max":309,"o":"m 99 6 q 22 -24 51 6 q -8 -114 -8 -54 l -8 -114 q 0 -179 -8 -139 l 0 -179 l 60 -460 l 27 -460 l 35 -500 l 68 -500 l 98 -638 l 246 -658 l 212 -500 l 272 -500 l 264 -460 l 204 -460 l 140 -160 q 136 -128 136 -145 l 136 -128 q 146 -99 136 -108 q 177 -91 155 -91 l 177 -91 q 231 -115 206 -91 q 267 -179 256 -140 l 267 -179 l 309 -179 q 214 -32 272 -71 q 99 6 156 6 l 99 6 z"},"u":{"ha":505,"x_min":-8,"x_max":547,"o":"m 99 6 q 22 -24 51 6 q -8 -114 -8 -54 l -8 -114 q 0 -179 -8 -139 l 0 -179 l 68 -500 l 212 -500 l 140 -160 q 137 -132 137 -145 l 137 -132 q 167 -91 137 -91 l 167 -91 q 215 -114 195 -91 q 247 -179 235 -138 l 247 -179 l 315 -500 l 459 -500 l 387 -160 q 383 -128 383 -145 l 383 -128 q 393 -99 383 -108 q 424 -91 402 -91 l 424 -91 q 473 -115 452 -91 q 505 -179 493 -139 l 505 -179 l 547 -179 q 456 -32 510 -71 q 346 6 401 6 l 346 6 q 278 -18 303 6 q 247 -89 252 -42 l 247 -89 q 176 -14 213 -34 q 99 6 138 6 l 99 6 z"},"ú":{"ha":505,"x_min":-8,"x_max":547,"o":"m 239 -561 l 330 -750 l 435 -750 l 314 -561 l 239 -561 z m 99 6 q 22 -24 51 6 q -8 -114 -8 -54 l -8 -114 q 0 -179 -8 -139 l 0 -179 l 68 -500 l 212 -500 l 140 -160 q 137 -132 137 -145 l 137 -132 q 167 -91 137 -91 l 167 -91 q 215 -114 195 -91 q 247 -179 235 -138 l 247 -179 l 315 -500 l 459 -500 l 387 -160 q 383 -128 383 -145 l 383 -128 q 393 -99 383 -108 q 424 -91 402 -91 l 424 -91 q 473 -115 452 -91 q 505 -179 493 -139 l 505 -179 l 547 -179 q 456 -32 510 -71 q 346 6 401 6 l 346 6 q 278 -18 303 6 q 247 -89 252 -42 l 247 -89 q 176 -14 213 -34 q 99 6 138 6 l 99 6 z"},"û":{"ha":505,"x_min":-8,"x_max":547,"o":"m 126 -561 l 338 -750 l 359 -750 l 419 -561 l 387 -561 l 327 -641 l 170 -561 l 126 -561 z m 99 6 q 22 -24 51 6 q -8 -114 -8 -54 l -8 -114 q 0 -179 -8 -139 l 0 -179 l 68 -500 l 212 -500 l 140 -160 q 137 -132 137 -145 l 137 -132 q 167 -91 137 -91 l 167 -91 q 215 -114 195 -91 q 247 -179 235 -138 l 247 -179 l 315 -500 l 459 -500 l 387 -160 q 383 -128 383 -145 l 383 -128 q 393 -99 383 -108 q 424 -91 402 -91 l 424 -91 q 473 -115 452 -91 q 505 -179 493 -139 l 505 -179 l 547 -179 q 456 -32 510 -71 q 346 6 401 6 l 346 6 q 278 -18 303 6 q 247 -89 252 -42 l 247 -89 q 176 -14 213 -34 q 99 6 138 6 l 99 6 z"},"ü":{"ha":505,"x_min":-8,"x_max":547,"o":"m 197 -573 q 154 -590 171 -573 q 136 -634 136 -608 l 136 -634 q 154 -677 136 -659 q 197 -695 171 -695 l 197 -695 q 240 -677 222 -695 q 258 -634 258 -659 l 258 -634 q 240 -590 258 -608 q 197 -573 222 -573 l 197 -573 z m 377 -573 q 334 -590 351 -573 q 316 -634 316 -608 l 316 -634 q 334 -677 316 -659 q 377 -695 351 -695 l 377 -695 q 420 -677 402 -695 q 438 -634 438 -659 l 438 -634 q 420 -590 438 -608 q 377 -573 402 -573 l 377 -573 z m 99 6 q 22 -24 51 6 q -8 -114 -8 -54 l -8 -114 q 0 -179 -8 -139 l 0 -179 l 68 -500 l 212 -500 l 140 -160 q 137 -132 137 -145 l 137 -132 q 167 -91 137 -91 l 167 -91 q 215 -114 195 -91 q 247 -179 235 -138 l 247 -179 l 315 -500 l 459 -500 l 387 -160 q 383 -128 383 -145 l 383 -128 q 393 -99 383 -108 q 424 -91 402 -91 l 424 -91 q 473 -115 452 -91 q 505 -179 493 -139 l 505 -179 l 547 -179 q 456 -32 510 -71 q 346 6 401 6 l 346 6 q 278 -18 303 6 q 247 -89 252 -42 l 247 -89 q 176 -14 213 -34 q 99 6 138 6 l 99 6 z"},"ù":{"ha":505,"x_min":-8,"x_max":547,"o":"m 244 -561 l 185 -750 l 290 -750 l 319 -561 l 244 -561 z m 99 6 q 22 -24 51 6 q -8 -114 -8 -54 l -8 -114 q 0 -179 -8 -139 l 0 -179 l 68 -500 l 212 -500 l 140 -160 q 137 -132 137 -145 l 137 -132 q 167 -91 137 -91 l 167 -91 q 215 -114 195 -91 q 247 -179 235 -138 l 247 -179 l 315 -500 l 459 -500 l 387 -160 q 383 -128 383 -145 l 383 -128 q 393 -99 383 -108 q 424 -91 402 -91 l 424 -91 q 473 -115 452 -91 q 505 -179 493 -139 l 505 -179 l 547 -179 q 456 -32 510 -71 q 346 6 401 6 l 346 6 q 278 -18 303 6 q 247 -89 252 -42 l 247 -89 q 176 -14 213 -34 q 99 6 138 6 l 99 6 z"},"v":{"ha":414,"x_min":-9,"x_max":399,"o":"m 114 6 q 24 -23 56 6 q -9 -112 -9 -53 l -9 -112 q -4 -160 -9 -136 l -4 -160 l 68 -500 l 212 -500 l 140 -160 q 135 -124 135 -135 l 135 -124 q 169 -91 135 -91 l 169 -91 q 255 -149 215 -91 q 318 -287 294 -207 q 342 -425 342 -367 l 342 -425 q 329 -417 340 -420 q 310 -415 318 -415 l 310 -415 q 284 -431 293 -415 q 274 -466 274 -447 l 274 -466 q 290 -505 274 -490 q 336 -520 305 -520 l 336 -520 q 384 -495 369 -520 q 399 -433 399 -471 l 399 -433 q 368 -240 399 -343 q 273 -66 337 -138 q 114 6 209 6 l 114 6 z"},"w":{"ha":661,"x_min":-8,"x_max":646,"o":"m 99 6 q 22 -24 51 6 q -8 -114 -8 -54 l -8 -114 q 0 -179 -8 -139 l 0 -179 l 68 -500 l 212 -500 l 140 -160 q 137 -135 137 -148 l 137 -135 q 167 -91 137 -91 l 167 -91 q 215 -114 195 -91 q 247 -179 235 -138 l 247 -179 l 315 -500 l 459 -500 l 387 -160 q 382 -124 382 -135 l 382 -124 q 416 -91 382 -91 l 416 -91 q 502 -149 462 -91 q 565 -287 541 -207 q 589 -425 589 -367 l 589 -425 q 576 -417 587 -420 q 557 -415 565 -415 l 557 -415 q 531 -431 540 -415 q 521 -466 521 -447 l 521 -466 q 537 -505 521 -490 q 583 -520 552 -520 l 583 -520 q 631 -495 616 -520 q 646 -433 646 -471 l 646 -433 q 615 -240 646 -343 q 520 -66 584 -138 q 361 6 456 6 l 361 6 q 281 -15 312 6 q 241 -78 250 -36 l 241 -78 q 99 6 185 6 l 99 6 z"},"x":{"ha":522,"x_min":0,"x_max":564,"o":"m 360 6 q 284 -36 314 6 q 238 -168 253 -78 l 238 -168 l 100 0 l 28 0 l 230 -228 l 214 -340 q 198 -406 206 -389 q 176 -423 189 -423 l 176 -423 q 131 -395 156 -423 q 83 -312 106 -368 q 42 -179 59 -257 l 42 -179 l 0 -179 q 87 -410 29 -315 q 236 -505 144 -505 l 236 -505 q 315 -469 290 -505 q 344 -386 339 -434 l 344 -386 l 353 -310 q 417 -392 396 -358 q 440 -454 438 -427 l 440 -454 q 423 -452 426 -452 l 423 -452 q 387 -467 398 -452 q 376 -508 376 -483 l 376 -508 q 396 -545 376 -533 q 444 -557 415 -557 l 444 -557 q 485 -529 470 -557 q 500 -466 500 -502 l 500 -466 q 470 -377 500 -422 q 361 -248 440 -333 l 361 -248 l 370 -178 q 391 -110 376 -130 q 432 -91 405 -91 l 432 -91 q 486 -115 461 -91 q 522 -179 511 -140 l 522 -179 l 564 -179 q 472 -34 528 -75 q 360 6 416 6 l 360 6 z"},"y":{"ha":486,"x_min":-8,"x_max":528,"o":"m 156 250 q 76 225 108 250 q 44 153 44 200 l 44 153 q 90 62 44 96 q 207 4 136 27 l 207 4 l 219 -50 q 160 -6 190 -18 q 99 6 130 6 l 99 6 q 22 -24 51 6 q -8 -114 -8 -54 l -8 -114 q 0 -179 -8 -139 l 0 -179 l 68 -500 l 212 -500 l 140 -160 q 137 -135 137 -148 l 137 -135 q 167 -91 137 -91 l 167 -91 q 213 -113 193 -91 q 245 -173 233 -136 l 245 -173 l 315 -500 l 459 -500 l 360 -36 q 437 -84 408 -52 q 486 -179 466 -116 l 486 -179 l 528 -179 q 455 -48 501 -90 q 351 8 409 -7 l 351 8 l 336 80 q 267 214 316 177 q 156 250 218 250 l 156 250 z m 133 172 q 166 149 150 172 q 191 83 182 126 l 191 83 l 197 54 q 99 139 99 90 l 99 139 q 108 162 99 152 q 133 172 117 172 l 133 172 z"},"ý":{"ha":505,"x_min":-8,"x_max":528,"o":"m 238 -561 l 329 -750 l 434 -750 l 313 -561 l 238 -561 z m 156 250 q 76 225 108 250 q 44 153 44 200 l 44 153 q 90 62 44 96 q 207 4 136 27 l 207 4 l 219 -50 q 160 -6 190 -18 q 99 6 130 6 l 99 6 q 22 -24 51 6 q -8 -114 -8 -54 l -8 -114 q 0 -179 -8 -139 l 0 -179 l 68 -500 l 212 -500 l 140 -160 q 137 -135 137 -148 l 137 -135 q 167 -91 137 -91 l 167 -91 q 213 -113 193 -91 q 245 -173 233 -136 l 245 -173 l 315 -500 l 459 -500 l 360 -36 q 437 -84 408 -52 q 486 -179 466 -116 l 486 -179 l 528 -179 q 455 -48 501 -90 q 351 8 409 -7 l 351 8 l 336 80 q 267 214 316 177 q 156 250 218 250 l 156 250 z m 133 172 q 166 149 150 172 q 191 83 182 126 l 191 83 l 197 54 q 99 139 99 90 l 99 139 q 108 162 99 152 q 133 172 117 172 l 133 172 z"},"ÿ":{"ha":505,"x_min":-8,"x_max":528,"o":"m 184 -573 q 141 -590 158 -573 q 123 -634 123 -608 l 123 -634 q 141 -677 123 -659 q 184 -695 158 -695 l 184 -695 q 227 -677 209 -695 q 245 -634 245 -659 l 245 -634 q 227 -590 245 -608 q 184 -573 209 -573 l 184 -573 z m 364 -573 q 321 -590 338 -573 q 303 -634 303 -608 l 303 -634 q 321 -677 303 -659 q 364 -695 338 -695 l 364 -695 q 407 -677 389 -695 q 425 -634 425 -659 l 425 -634 q 407 -590 425 -608 q 364 -573 389 -573 l 364 -573 z m 156 250 q 76 225 108 250 q 44 153 44 200 l 44 153 q 90 62 44 96 q 207 4 136 27 l 207 4 l 219 -50 q 160 -6 190 -18 q 99 6 130 6 l 99 6 q 22 -24 51 6 q -8 -114 -8 -54 l -8 -114 q 0 -179 -8 -139 l 0 -179 l 68 -500 l 212 -500 l 140 -160 q 137 -135 137 -148 l 137 -135 q 167 -91 137 -91 l 167 -91 q 213 -113 193 -91 q 245 -173 233 -136 l 245 -173 l 315 -500 l 459 -500 l 360 -36 q 437 -84 408 -52 q 486 -179 466 -116 l 486 -179 l 528 -179 q 455 -48 501 -90 q 351 8 409 -7 l 351 8 l 336 80 q 267 214 316 177 q 156 250 218 250 l 156 250 z m 133 172 q 166 149 150 172 q 191 83 182 126 l 191 83 l 197 54 q 99 139 99 90 l 99 139 q 108 162 99 152 q 133 172 117 172 l 133 172 z"},"z":{"ha":428,"x_min":0,"x_max":428,"o":"m 0 0 l 255 -446 l 199 -446 q 158 -443 171 -446 q 144 -430 144 -440 l 144 -430 q 150 -425 144 -428 q 155 -408 155 -423 l 155 -408 q 139 -368 155 -382 q 101 -355 123 -355 l 101 -355 q 69 -366 82 -355 q 55 -399 55 -378 l 55 -399 q 70 -444 55 -420 q 111 -484 84 -468 q 171 -500 137 -500 l 171 -500 l 428 -500 l 183 -77 q 205 -75 189 -77 l 205 -75 q 259 -71 239 -71 l 259 -71 q 306 -91 302 -71 l 306 -91 q 292 -97 297 -92 q 287 -112 287 -103 l 287 -112 q 302 -141 287 -128 q 343 -155 317 -155 l 343 -155 q 376 -142 365 -155 q 387 -107 387 -129 l 387 -107 q 372 -58 387 -83 q 329 -16 357 -33 q 265 0 301 0 l 265 0 l 0 0 z"},"ª":{"ha":345,"x_min":43,"x_max":320,"o":"m 114 -467 q 60 -487 76 -467 q 43 -535 43 -507 l 43 -535 q 80 -678 43 -617 q 195 -739 116 -739 l 195 -739 q 234 -725 215 -739 l 234 -725 l 237 -740 l 320 -740 l 278 -556 q 276 -547 277 -552 q 275 -538 275 -542 l 275 -538 q 296 -518 275 -518 l 296 -518 l 302 -518 q 311 -520 308 -518 l 311 -520 q 286 -479 300 -489 q 251 -470 271 -470 l 251 -470 q 193 -510 205 -470 l 193 -510 q 114 -467 157 -467 l 114 -467 z m 155 -512 q 191 -538 172 -512 l 191 -538 l 195 -556 l 228 -699 q 199 -709 217 -709 l 199 -709 q 160 -685 178 -709 q 132 -624 142 -661 q 121 -550 121 -587 l 121 -550 q 155 -512 121 -512 l 155 -512 z"},"º":{"ha":329,"x_min":42,"x_max":301,"o":"m 133 -466 q 64 -486 85 -466 q 42 -555 42 -507 l 42 -555 q 86 -697 42 -649 q 194 -745 129 -745 l 194 -745 q 233 -738 216 -745 q 249 -721 249 -732 l 249 -721 q 242 -704 249 -710 q 223 -695 235 -699 l 223 -695 q 197 -714 216 -714 l 197 -714 q 154 -686 171 -714 q 128 -622 136 -659 q 119 -560 119 -586 l 119 -560 q 130 -528 119 -537 q 160 -519 140 -519 l 160 -519 q 200 -551 185 -519 q 219 -627 215 -584 l 219 -627 q 204 -649 204 -632 l 204 -649 q 217 -676 204 -663 q 243 -690 229 -690 l 243 -690 q 258 -686 254 -690 q 262 -671 262 -682 l 262 -671 q 283 -688 274 -678 q 295 -703 292 -699 l 295 -703 l 301 -692 q 285 -657 293 -671 q 262 -635 277 -644 l 262 -635 q 240 -543 260 -582 q 190 -485 219 -505 q 133 -466 161 -466 l 133 -466 z"},"¹":{"ha":229,"x_min":45,"x_max":219,"o":"m 45 -344 l 115 -678 q 85 -673 97 -673 l 85 -673 q 58 -681 67 -673 q 49 -704 49 -689 l 49 -704 q 52 -720 49 -711 l 52 -720 q 216 -763 130 -720 l 216 -763 l 219 -761 l 130 -344 l 45 -344 z"},"²":{"ha":328,"x_min":50,"x_max":318,"o":"m 228 -337 q 177 -347 213 -337 l 177 -347 q 116 -358 135 -358 l 116 -358 q 57 -342 88 -358 l 57 -342 l 53 -342 q 50 -368 50 -356 l 50 -368 q 70 -431 50 -402 q 131 -504 90 -461 l 131 -504 q 202 -591 178 -554 q 226 -675 226 -628 l 226 -675 q 217 -718 226 -702 q 189 -734 208 -734 l 189 -734 q 158 -721 170 -734 q 146 -689 146 -708 l 146 -689 q 153 -662 146 -674 q 171 -646 160 -651 l 171 -646 l 172 -643 q 152 -630 163 -635 q 131 -625 141 -625 l 131 -625 q 99 -637 112 -625 q 86 -670 86 -649 l 86 -670 q 100 -714 86 -693 q 142 -749 114 -736 q 206 -763 169 -763 l 206 -763 q 287 -739 256 -763 q 318 -673 318 -715 l 318 -673 q 291 -599 318 -632 q 208 -520 263 -566 l 208 -520 q 150 -468 171 -490 q 116 -424 128 -447 l 116 -424 q 150 -428 129 -428 l 150 -428 q 206 -421 166 -428 l 206 -421 q 244 -416 229 -416 l 244 -416 q 291 -440 270 -416 l 291 -440 l 294 -439 q 301 -404 301 -421 l 301 -404 q 280 -356 301 -375 q 228 -337 258 -337 l 228 -337 z"},"³":{"ha":336,"x_min":50,"x_max":326,"o":"m 164 -340 q 82 -369 114 -340 q 50 -445 50 -399 l 50 -445 q 69 -502 50 -480 q 118 -524 88 -524 l 118 -524 q 142 -516 132 -524 q 159 -490 152 -508 l 159 -490 q 128 -469 139 -485 q 116 -431 116 -454 l 116 -431 q 128 -393 116 -408 q 159 -378 140 -378 l 159 -378 q 206 -404 188 -378 q 224 -473 224 -431 l 224 -473 q 206 -540 224 -515 q 156 -571 188 -566 l 156 -571 l 156 -575 q 221 -616 197 -588 q 245 -680 245 -644 l 245 -680 q 235 -719 245 -705 q 206 -734 224 -734 l 206 -734 q 178 -721 189 -734 q 167 -688 167 -708 l 167 -688 q 190 -645 167 -656 l 190 -645 l 191 -642 q 148 -623 167 -623 l 148 -623 q 113 -637 126 -623 q 99 -673 99 -651 l 99 -673 q 134 -736 99 -710 q 218 -763 169 -763 l 218 -763 q 296 -737 265 -763 q 326 -674 326 -712 l 326 -674 q 301 -614 326 -640 q 234 -576 276 -588 l 234 -576 l 234 -572 q 296 -538 273 -564 q 319 -475 319 -512 l 319 -475 q 298 -408 319 -440 q 241 -358 276 -377 q 164 -340 205 -340 l 164 -340 z"},"½":{"ha":745,"x_min":45,"x_max":735,"o":"m 45 -344 l 115 -678 q 85 -673 97 -673 l 85 -673 q 58 -681 67 -673 q 49 -704 49 -689 l 49 -704 q 52 -720 49 -711 l 52 -720 q 216 -763 130 -720 l 216 -763 l 219 -761 l 130 -344 l 45 -344 z m 109 0 l 525 -752 l 597 -752 l 181 0 l 109 0 z m 645 6 q 594 -4 630 6 l 594 -4 q 533 -15 552 -15 l 533 -15 q 474 1 505 -15 l 474 1 l 470 1 q 467 -25 467 -13 l 467 -25 q 487 -88 467 -59 q 548 -161 507 -118 l 548 -161 q 619 -248 595 -211 q 643 -332 643 -285 l 643 -332 q 634 -375 643 -359 q 606 -391 625 -391 l 606 -391 q 575 -378 587 -391 q 563 -346 563 -365 l 563 -346 q 570 -319 563 -331 q 588 -303 577 -308 l 588 -303 l 589 -300 q 569 -287 580 -292 q 548 -282 558 -282 l 548 -282 q 516 -294 529 -282 q 503 -327 503 -306 l 503 -327 q 517 -371 503 -350 q 559 -406 531 -393 q 623 -420 586 -420 l 623 -420 q 704 -396 673 -420 q 735 -330 735 -372 l 735 -330 q 708 -256 735 -289 q 625 -177 680 -223 l 625 -177 q 567 -125 588 -147 q 533 -81 545 -104 l 533 -81 q 567 -85 546 -85 l 567 -85 q 623 -78 583 -85 l 623 -78 q 661 -73 646 -73 l 661 -73 q 708 -97 687 -73 l 708 -97 l 711 -96 q 718 -61 718 -78 l 718 -61 q 697 -13 718 -32 q 645 6 675 6 l 645 6 z"},"¼":{"ha":749,"x_min":45,"x_max":739,"o":"m 45 -344 l 115 -678 q 85 -673 97 -673 l 85 -673 q 58 -681 67 -673 q 49 -704 49 -689 l 49 -704 q 52 -720 49 -711 l 52 -720 q 216 -763 130 -720 l 216 -763 l 219 -761 l 130 -344 l 45 -344 z m 109 0 l 525 -752 l 597 -752 l 181 0 l 109 0 z m 564 0 l 596 -148 l 448 -148 l 447 -152 q 506 -268 487 -218 q 524 -364 524 -319 l 524 -364 q 516 -416 524 -384 l 516 -416 q 551 -419 532 -419 l 551 -419 q 590 -403 576 -419 q 603 -359 603 -387 l 603 -359 q 580 -279 603 -324 q 517 -195 556 -234 l 517 -195 l 518 -192 l 605 -192 l 650 -402 l 739 -413 l 691 -192 l 729 -192 l 718 -148 l 682 -148 l 651 0 l 564 0 z"},"¾":{"ha":836,"x_min":50,"x_max":826,"o":"m 164 -340 q 82 -369 114 -340 q 50 -445 50 -399 l 50 -445 q 69 -502 50 -480 q 118 -524 88 -524 l 118 -524 q 142 -516 132 -524 q 159 -490 152 -508 l 159 -490 q 128 -469 139 -485 q 116 -431 116 -454 l 116 -431 q 128 -393 116 -408 q 159 -378 140 -378 l 159 -378 q 206 -404 188 -378 q 224 -473 224 -431 l 224 -473 q 206 -540 224 -515 q 156 -571 188 -566 l 156 -571 l 156 -575 q 221 -616 197 -588 q 245 -680 245 -644 l 245 -680 q 235 -719 245 -705 q 206 -734 224 -734 l 206 -734 q 178 -721 189 -734 q 167 -688 167 -708 l 167 -688 q 190 -645 167 -656 l 190 -645 l 191 -642 q 148 -623 167 -623 l 148 -623 q 113 -637 126 -623 q 99 -673 99 -651 l 99 -673 q 134 -736 99 -710 q 218 -763 169 -763 l 218 -763 q 296 -737 265 -763 q 326 -674 326 -712 l 326 -674 q 301 -614 326 -640 q 234 -576 276 -588 l 234 -576 l 234 -572 q 296 -538 273 -564 q 319 -475 319 -512 l 319 -475 q 298 -408 319 -440 q 241 -358 276 -377 q 164 -340 205 -340 l 164 -340 z m 196 0 l 612 -752 l 684 -752 l 268 0 l 196 0 z m 651 0 l 683 -148 l 535 -148 l 534 -152 q 593 -268 574 -218 q 611 -364 611 -319 l 611 -364 q 603 -416 611 -384 l 603 -416 q 638 -419 619 -419 l 638 -419 q 677 -403 663 -419 q 690 -359 690 -387 l 690 -359 q 667 -279 690 -324 q 604 -195 643 -234 l 604 -195 l 605 -192 l 692 -192 l 737 -402 l 826 -413 l 778 -192 l 816 -192 l 805 -148 l 769 -148 l 738 0 l 651 0 z"},"*":{"ha":515,"x_min":85,"x_max":433,"o":"m 248 -368 q 206 -376 233 -368 l 206 -376 l 230 -521 q 179 -471 201 -486 q 135 -456 157 -456 l 135 -456 q 99 -472 113 -456 q 85 -513 85 -488 l 85 -513 q 86 -526 85 -522 l 86 -526 l 213 -567 q 118 -596 143 -579 q 92 -640 92 -614 l 92 -640 q 100 -670 92 -657 q 129 -701 108 -683 l 129 -701 l 230 -612 q 213 -702 213 -673 l 213 -702 q 267 -765 213 -765 l 267 -765 q 310 -757 281 -765 l 310 -757 l 285 -612 q 338 -663 314 -647 q 382 -679 361 -679 l 382 -679 q 419 -663 405 -679 q 433 -622 433 -647 l 433 -622 q 431 -609 433 -617 l 431 -609 l 301 -567 q 396 -536 370 -554 q 421 -493 421 -519 l 421 -493 q 414 -462 421 -475 q 385 -432 406 -449 l 385 -432 l 285 -521 q 301 -431 301 -457 l 301 -431 q 248 -368 301 -368 l 248 -368 z"},"\\":{"ha":362,"x_min":42,"x_max":326,"o":"m 254 250 l 42 -750 l 114 -750 l 326 250 l 254 250 z"},"·":{"ha":434,"x_min":120,"x_max":313,"o":"m 216 -171 q 148 -199 176 -171 q 120 -267 120 -227 l 120 -267 q 148 -335 120 -307 q 216 -364 176 -364 l 216 -364 q 285 -335 256 -364 q 313 -267 313 -307 l 313 -267 q 285 -199 313 -227 q 216 -171 256 -171 l 216 -171 z"},":":{"ha":267,"x_min":41,"x_max":250,"o":"m 170 -296 q 114 -319 137 -296 q 91 -375 91 -342 l 91 -375 q 114 -431 91 -408 q 170 -455 137 -455 l 170 -455 q 227 -431 203 -455 q 250 -375 250 -408 l 250 -375 q 227 -319 250 -342 q 170 -296 203 -296 l 170 -296 z m 120 -56 q 64 -79 87 -56 q 41 -135 41 -102 l 41 -135 q 64 -191 41 -168 q 120 -215 87 -215 l 120 -215 q 177 -191 153 -215 q 200 -135 200 -168 l 200 -135 q 177 -79 200 -102 q 120 -56 153 -56 l 120 -56 z"},",":{"ha":216,"x_min":24,"x_max":171,"o":"m 41 126 q 32 109 32 120 l 32 109 q 38 88 32 97 q 58 64 44 79 l 58 64 q 78 40 72 49 q 84 18 84 31 l 84 18 q 71 -2 84 7 l 71 -2 q 24 -75 24 -32 l 24 -75 q 47 -131 24 -108 q 103 -155 70 -155 l 103 -155 q 153 -134 135 -155 q 171 -79 171 -113 l 171 -79 q 136 27 171 -32 q 41 126 100 86 l 41 126 z"},"!":{"ha":257,"x_min":32,"x_max":328,"o":"m 98 -231 l 174 -731 l 328 -752 l 183 -231 l 98 -231 z m 112 6 q 56 -17 79 6 q 32 -74 32 -41 l 32 -74 q 56 -130 32 -107 q 112 -153 79 -153 l 112 -153 q 168 -130 145 -153 q 191 -74 191 -107 l 191 -74 q 168 -17 191 -41 q 112 6 145 6 l 112 6 z"},"¡":{"ha":219,"x_min":-63,"x_max":233,"o":"m 153 -354 q 97 -377 120 -354 q 74 -433 74 -400 l 74 -433 q 97 -489 74 -466 q 153 -513 120 -513 l 153 -513 q 210 -489 186 -513 q 233 -433 233 -466 l 233 -433 q 210 -377 233 -400 q 153 -354 186 -354 l 153 -354 z m -63 245 l 82 -276 l 167 -276 l 91 224 l -63 245 z"},"#":{"ha":659,"x_min":60,"x_max":593,"o":"m 578 -415 l 481 -415 l 456 -292 l 550 -292 l 535 -215 l 440 -215 l 402 -28 l 329 -28 l 367 -215 l 238 -215 l 200 -28 l 127 -28 l 165 -215 l 60 -215 l 75 -292 l 180 -292 l 205 -415 l 103 -415 l 118 -492 l 221 -492 l 257 -673 l 331 -673 l 294 -492 l 423 -492 l 459 -673 l 533 -673 l 496 -492 l 593 -492 l 578 -415 z m 382 -292 l 407 -415 l 279 -415 l 254 -292 l 382 -292 z"},".":{"ha":263,"x_min":31,"x_max":190,"o":"m 110 4 q 54 -19 77 4 q 31 -75 31 -42 l 31 -75 q 54 -131 31 -108 q 110 -155 77 -155 l 110 -155 q 167 -131 143 -155 q 190 -75 190 -108 l 190 -75 q 167 -19 190 -42 q 110 4 143 4 l 110 4 z"},"?":{"ha":441,"x_min":46,"x_max":432,"o":"m 105 -232 q 120 -318 105 -280 q 155 -385 134 -357 q 208 -450 175 -413 l 208 -450 q 273 -534 251 -498 q 294 -620 294 -571 l 294 -620 q 277 -687 294 -663 q 228 -711 260 -711 l 228 -711 q 173 -687 195 -711 q 150 -629 150 -664 l 150 -629 q 163 -581 150 -603 q 198 -550 176 -560 l 198 -550 l 198 -546 q 161 -521 180 -530 q 123 -512 141 -512 l 123 -512 q 71 -535 91 -512 q 50 -596 50 -559 l 50 -596 q 78 -681 50 -643 q 152 -741 105 -719 q 257 -763 199 -763 l 257 -763 q 385 -726 338 -763 q 432 -625 432 -689 l 432 -625 q 415 -553 432 -586 q 373 -496 398 -521 q 305 -437 347 -471 l 305 -437 q 234 -373 260 -399 q 190 -311 208 -347 q 171 -232 171 -276 l 171 -232 l 105 -232 z m 126 0 q 70 -23 94 0 q 46 -80 46 -47 l 46 -80 q 70 -136 46 -113 q 126 -159 93 -159 l 126 -159 q 183 -136 159 -159 q 206 -80 206 -113 l 206 -80 q 183 -23 206 -47 q 126 0 159 0 l 126 0 z"},"¿":{"ha":439,"x_min":-13,"x_max":372,"o":"m 292 -349 q 236 -372 259 -349 q 213 -428 213 -395 l 213 -428 q 236 -484 213 -461 q 292 -508 259 -508 l 292 -508 q 349 -484 325 -508 q 372 -428 372 -461 l 372 -428 q 349 -372 372 -395 q 292 -349 325 -349 l 292 -349 z m 157 250 q 33 213 78 250 q -13 110 -13 175 l -13 110 q 5 38 -13 70 q 48 -19 22 5 q 117 -77 74 -43 l 117 -77 q 189 -137 162 -112 q 234 -197 215 -163 q 252 -276 252 -232 l 252 -276 l 313 -276 q 299 -191 313 -229 q 265 -127 285 -154 q 212 -64 245 -101 l 212 -64 q 146 21 168 -16 q 124 107 124 57 l 124 107 q 142 174 124 150 q 191 198 159 198 l 191 198 q 246 175 224 198 q 268 117 268 152 l 268 117 q 255 69 268 91 q 220 37 242 47 l 220 37 l 220 33 q 258 8 238 17 q 297 -1 278 -1 l 297 -1 q 349 23 329 -1 q 368 85 368 46 l 368 85 q 341 169 368 131 q 265 229 313 207 q 157 250 216 250 l 157 250 z"},"\"":{"ha":353,"x_min":80,"x_max":417,"o":"m 80 -520 l 155 -752 l 260 -752 l 150 -520 l 80 -520 z m 237 -520 l 312 -752 l 417 -752 l 307 -520 l 237 -520 z"},"'":{"ha":196,"x_min":80,"x_max":260,"o":"m 80 -520 l 155 -752 l 260 -752 l 150 -520 l 80 -520 z"},";":{"ha":276,"x_min":46,"x_max":253,"o":"m 173 -252 q 117 -275 140 -252 q 94 -331 94 -298 l 94 -331 q 117 -387 94 -364 q 173 -411 140 -411 l 173 -411 q 230 -387 206 -411 q 253 -331 253 -364 l 253 -331 q 230 -275 253 -298 q 173 -252 206 -252 l 173 -252 z m 63 110 q 54 93 54 104 l 54 93 q 60 72 54 81 q 80 48 66 63 l 80 48 q 100 24 94 33 q 106 2 106 15 l 106 2 q 93 -18 106 -9 l 93 -18 q 46 -91 46 -48 l 46 -91 q 69 -147 46 -124 q 125 -171 92 -171 l 125 -171 q 175 -150 157 -171 q 193 -95 193 -129 l 193 -95 q 158 11 193 -48 q 63 110 122 70 l 63 110 z"},"/":{"ha":311,"x_min":11,"x_max":295,"o":"m 11 250 l 223 -750 l 295 -750 l 83 250 l 11 250 z"},"_":{"ha":444,"x_min":36,"x_max":404,"o":"m 36 0 l 54 -79 l 404 -79 l 387 0 l 36 0 z"},"{":{"ha":352,"x_min":45,"x_max":400,"o":"m 189 250 q 85 218 124 250 q 46 131 46 186 l 46 131 q 55 64 46 102 q 82 -33 64 26 l 82 -33 q 109 -130 100 -94 q 118 -194 118 -166 l 118 -194 q 109 -222 118 -214 q 77 -230 100 -230 l 77 -230 l 45 -230 l 56 -281 l 87 -281 q 138 -308 122 -281 q 156 -402 154 -336 l 156 -402 q 182 -613 162 -539 q 242 -720 201 -688 q 357 -752 283 -752 l 357 -752 l 400 -752 l 392 -702 q 319 -681 341 -702 q 285 -598 296 -661 q 260 -381 273 -535 l 260 -381 q 235 -304 256 -330 q 161 -256 214 -279 l 161 -256 q 204 -224 192 -242 q 216 -178 216 -207 l 216 -178 q 211 -128 216 -156 q 192 -50 205 -100 l 192 -50 q 171 39 178 2 q 164 107 164 76 l 164 107 q 181 176 164 150 q 228 205 197 201 l 228 205 l 218 250 l 189 250 z"},"}":{"ha":352,"x_min":-65,"x_max":290,"o":"m -65 250 l -56 200 q 17 180 -6 200 q 51 96 39 159 q 75 -121 63 32 l 75 -121 q 100 -197 79 -172 q 175 -246 121 -223 l 175 -246 q 132 -277 144 -260 q 119 -324 119 -295 l 119 -324 q 125 -374 119 -347 q 143 -452 130 -402 l 143 -452 q 165 -543 158 -509 q 172 -609 172 -578 l 172 -609 q 155 -677 172 -652 q 107 -707 138 -703 l 107 -707 l 117 -752 l 146 -752 q 251 -720 212 -752 q 289 -633 289 -688 l 289 -633 q 280 -566 289 -604 q 253 -469 271 -528 l 253 -469 q 226 -369 234 -402 q 218 -308 218 -336 l 218 -308 q 227 -280 218 -288 q 259 -272 236 -272 l 259 -272 l 290 -272 l 280 -221 l 248 -221 q 197 -193 213 -221 q 179 -100 181 -166 l 179 -100 q 154 112 173 38 q 93 218 134 186 q -22 250 52 250 l -22 250 l -65 250 z"},"[":{"ha":400,"x_min":-7,"x_max":416,"o":"m -7 240 l 203 -752 l 416 -752 l 405 -695 l 294 -695 l 107 183 l 218 183 l 206 240 l -7 240 z"},"]":{"ha":400,"x_min":-60,"x_max":364,"o":"m -60 240 l -48 183 l 63 183 l 250 -695 l 139 -695 l 150 -752 l 364 -752 l 154 240 l -60 240 z"},"(":{"ha":437,"x_min":150,"x_max":532,"o":"m 306 237 q 191 58 231 161 q 150 -164 150 -46 l 150 -164 q 196 -407 150 -290 q 325 -617 241 -524 q 519 -763 409 -710 l 519 -763 l 532 -723 q 393 -584 454 -677 q 298 -369 332 -491 q 264 -118 264 -247 l 264 -118 q 283 61 264 -23 q 339 208 302 144 l 339 208 l 306 237 z"},")":{"ha":413,"x_min":-68,"x_max":313,"o":"m -55 237 l -68 197 q 71 58 10 151 q 166 -157 132 -35 q 200 -408 200 -279 l 200 -408 q 181 -586 200 -503 q 125 -734 162 -670 l 125 -734 l 158 -763 q 273 -583 233 -687 q 313 -362 313 -480 l 313 -362 q 268 -119 313 -236 q 139 91 222 -2 q -55 237 55 183 l -55 237 z"},"-":{"ha":290,"x_min":19,"x_max":237,"o":"m 19 -222 l 37 -301 l 237 -301 l 220 -222 l 19 -222 z"},"­":{"ha":290,"x_min":19,"x_max":237,"o":"m 19 -222 l 37 -301 l 237 -301 l 220 -222 l 19 -222 z"},"«":{"ha":589,"x_min":20,"x_max":546,"o":"m 267 -101 l 20 -238 l 29 -279 l 336 -429 l 326 -374 l 85 -254 l 279 -158 l 267 -101 z m 477 -101 l 230 -238 l 239 -279 l 546 -429 l 536 -374 l 295 -254 l 489 -158 l 477 -101 z"},"»":{"ha":586,"x_min":15,"x_max":552,"o":"m 15 -101 l 29 -158 l 269 -254 l 75 -374 l 84 -429 l 330 -279 l 319 -225 l 15 -101 z m 237 -101 l 251 -158 l 491 -254 l 297 -374 l 306 -429 l 552 -279 l 541 -225 l 237 -101 z"}," ":{"ha":217,"x_min":0,"x_max":0,"o":""},"¢":{"ha":384,"x_min":8,"x_max":419,"o":"m 303 -608 q 389 -581 358 -607 q 419 -513 419 -556 l 419 -513 q 401 -454 419 -478 q 356 -431 383 -431 l 356 -431 q 331 -437 343 -431 q 311 -453 319 -443 l 311 -453 q 323 -483 318 -465 q 328 -518 328 -502 l 328 -518 q 319 -546 328 -537 q 291 -555 310 -555 l 291 -555 l 205 -183 q 229 -181 221 -181 l 229 -181 q 285 -192 260 -181 q 333 -230 310 -204 l 333 -230 q 341 -191 341 -210 l 341 -191 q 303 -120 341 -147 q 199 -94 264 -94 l 199 -94 l 185 -94 l 157 27 l 107 27 l 136 -102 q 42 -168 75 -119 q 8 -293 8 -218 l 8 -293 q 41 -435 8 -368 q 129 -547 73 -502 q 251 -604 184 -592 l 251 -604 l 277 -718 l 328 -718 l 303 -608 z m 127 -305 q 159 -203 127 -231 l 159 -203 l 236 -540 q 158 -447 189 -513 q 127 -305 127 -382 l 127 -305 z"},"¤":{"ha":500,"x_min":68,"x_max":434,"o":"m 105 -164 l 69 -200 l 125 -256 q 96 -345 96 -294 l 96 -345 q 125 -435 96 -397 l 125 -435 l 68 -492 l 106 -528 l 162 -472 q 253 -502 203 -502 l 253 -502 q 342 -473 304 -502 l 342 -473 l 398 -529 l 434 -493 l 379 -438 q 409 -346 409 -398 l 409 -346 q 379 -255 409 -296 l 379 -255 l 434 -200 l 398 -164 l 343 -219 q 253 -190 305 -190 l 253 -190 q 161 -220 201 -190 l 161 -220 l 105 -164 z m 253 -246 q 324 -275 295 -246 q 353 -346 353 -304 l 353 -346 q 324 -417 353 -388 q 253 -446 295 -446 l 253 -446 q 182 -417 211 -446 q 153 -346 153 -388 l 153 -346 q 182 -275 153 -304 q 253 -246 211 -246 l 253 -246 z"},"$":{"ha":548,"x_min":14,"x_max":533,"o":"m 396 -560 q 426 -597 415 -574 q 437 -645 437 -620 l 437 -645 q 427 -685 437 -669 q 396 -710 416 -702 l 396 -710 l 340 -466 l 363 -441 q 427 -368 402 -400 q 468 -298 451 -337 q 484 -214 484 -259 l 484 -214 q 450 -98 484 -151 q 358 -13 416 -45 q 230 18 300 18 l 230 18 l 201 143 l 151 143 l 180 15 q 59 -44 104 3 q 14 -160 14 -91 l 14 -160 q 45 -257 14 -219 q 125 -295 76 -295 l 125 -295 q 182 -276 158 -295 q 211 -229 206 -258 l 211 -229 q 143 -204 169 -229 q 117 -140 117 -180 l 117 -140 q 138 -82 117 -105 q 196 -54 159 -59 l 196 -54 l 263 -350 q 244 -372 245 -371 l 244 -372 q 163 -481 190 -436 q 136 -580 136 -527 l 136 -580 q 165 -673 136 -632 q 243 -739 193 -715 q 355 -763 293 -763 l 355 -763 l 357 -763 l 380 -863 l 431 -863 l 407 -758 q 500 -711 466 -747 q 533 -623 533 -675 l 533 -623 q 512 -555 533 -581 q 457 -529 491 -529 l 457 -529 q 396 -560 419 -529 l 396 -560 z m 264 -614 q 301 -514 264 -566 l 301 -514 l 346 -713 q 287 -680 309 -707 q 264 -614 264 -653 l 264 -614 z m 349 -177 q 302 -300 349 -236 l 302 -300 l 246 -54 q 321 -95 293 -62 q 349 -177 349 -129 l 349 -177 z"},"£":{"ha":455,"x_min":13,"x_max":515,"o":"m 476 -165 l 479 -164 q 492 -102 492 -135 l 492 -102 q 454 -23 492 -53 q 351 6 416 6 l 351 6 q 259 -9 317 6 l 259 -9 q 199 -22 221 -18 q 149 -26 176 -26 l 149 -26 q 22 -5 96 -26 l 22 -5 l 13 -46 q 59 -97 37 -60 q 90 -182 80 -134 l 90 -182 l 130 -369 l 34 -369 l 48 -419 l 141 -419 l 175 -576 q 254 -713 194 -663 q 393 -763 313 -763 l 393 -763 q 482 -736 448 -763 q 515 -662 515 -710 l 515 -662 q 496 -600 515 -625 q 443 -575 476 -575 l 443 -575 q 415 -583 427 -575 q 397 -602 403 -591 l 397 -602 q 411 -633 405 -614 q 417 -668 417 -652 l 417 -668 q 410 -699 417 -689 q 389 -710 402 -710 l 389 -710 q 309 -576 338 -710 l 309 -576 l 275 -419 l 417 -419 l 403 -369 l 264 -369 l 233 -224 q 210 -169 226 -191 q 165 -131 194 -147 l 165 -131 l 168 -127 q 194 -133 182 -132 q 226 -135 206 -135 l 226 -135 q 302 -124 258 -135 l 302 -124 q 331 -118 307 -123 q 377 -113 354 -113 l 377 -113 q 430 -125 407 -113 q 476 -165 453 -137 l 476 -165 z"},"¥":{"ha":558,"x_min":84,"x_max":575,"o":"m 153 0 l 183 -142 l 84 -142 l 98 -192 l 194 -192 l 208 -257 l 109 -257 l 123 -307 l 219 -307 l 107 -750 l 271 -750 l 359 -389 l 509 -750 l 575 -750 l 379 -307 l 510 -307 l 496 -257 l 368 -257 l 354 -192 l 485 -192 l 471 -142 l 343 -142 l 313 0 l 153 0 z"},"+":{"ha":442,"x_min":15,"x_max":401,"o":"m 126 -157 l 157 -301 l 15 -301 l 33 -380 l 175 -380 l 205 -519 l 285 -519 l 255 -380 l 401 -380 l 384 -301 l 237 -301 l 206 -157 l 126 -157 z"},"×":{"ha":414,"x_min":42,"x_max":362,"o":"m 100 -181 l 43 -237 l 145 -339 l 42 -442 l 100 -499 l 202 -396 l 306 -500 l 362 -443 l 259 -340 l 361 -239 l 304 -181 l 201 -282 l 100 -181 z"},"÷":{"ha":415,"x_min":39,"x_max":407,"o":"m 256 -439 q 200 -462 223 -439 q 177 -518 177 -485 l 177 -518 q 200 -574 177 -551 q 256 -598 223 -598 l 256 -598 q 313 -574 289 -598 q 336 -518 336 -551 l 336 -518 q 313 -462 336 -485 q 256 -439 289 -439 l 256 -439 z m 39 -301 l 57 -380 l 407 -380 l 390 -301 l 39 -301 z m 196 -84 q 140 -107 163 -84 q 117 -163 117 -130 l 117 -163 q 140 -219 117 -196 q 196 -243 163 -243 l 196 -243 q 253 -219 229 -243 q 276 -163 276 -196 l 276 -163 q 253 -107 276 -130 q 196 -84 229 -84 l 196 -84 z"},"=":{"ha":515,"x_min":32,"x_max":468,"o":"m 76 -316 l 100 -428 l 468 -428 l 445 -316 l 76 -316 z m 32 -101 l 56 -213 l 424 -213 l 401 -101 l 32 -101 z"},">":{"ha":362,"x_min":7,"x_max":353,"o":"m 7 -81 l 14 -161 l 236 -277 l 54 -372 l 76 -449 l 353 -292 l 344 -251 l 7 -81 z"},"<":{"ha":358,"x_min":7,"x_max":353,"o":"m 284 -81 l 7 -238 l 16 -279 l 353 -449 l 346 -369 l 124 -253 l 306 -158 l 284 -81 z"},"±":{"ha":479,"x_min":22,"x_max":445,"o":"m 170 -242 l 201 -386 l 59 -386 l 77 -465 l 219 -465 l 249 -604 l 329 -604 l 299 -465 l 445 -465 l 428 -386 l 281 -386 l 250 -242 l 170 -242 z m 22 -112 l 40 -191 l 390 -191 l 373 -112 l 22 -112 z"},"~":{"ha":431,"x_min":49,"x_max":450,"o":"m 289 -569 q 245 -574 266 -569 q 197 -589 224 -579 l 197 -589 q 157 -601 174 -597 q 121 -606 139 -606 l 121 -606 q 55 -580 84 -606 l 55 -580 l 49 -582 q 116 -655 73 -630 q 216 -680 159 -680 l 216 -680 q 262 -675 241 -680 q 308 -662 283 -671 l 308 -662 q 381 -647 351 -647 l 381 -647 q 444 -670 421 -647 l 444 -670 l 450 -669 q 421 -622 445 -646 q 361 -584 396 -599 q 289 -569 326 -569 l 289 -569 z"},"¬":{"ha":444,"x_min":19,"x_max":399,"o":"m 235 -51 l 270 -222 l 19 -222 l 37 -301 l 399 -301 l 348 -51 l 235 -51 z"},"µ":{"ha":505,"x_min":-73,"x_max":547,"o":"m -73 166 l -3 -164 l 0 -179 l 68 -500 l 212 -500 l 140 -160 q 137 -135 137 -148 l 137 -135 q 167 -91 137 -91 l 167 -91 q 215 -114 195 -91 q 247 -179 235 -138 l 247 -179 l 315 -500 l 459 -500 l 387 -160 q 383 -128 383 -145 l 383 -128 q 393 -99 383 -108 q 424 -91 402 -91 l 424 -91 q 473 -115 452 -91 q 505 -179 493 -139 l 505 -179 l 547 -179 q 346 0 486 0 l 346 0 q 279 -22 304 0 q 248 -90 253 -45 l 248 -90 q 105 0 192 0 l 105 0 l 78 130 l -73 166 z"},"%":{"ha":796,"x_min":50,"x_max":786,"o":"m 164 -340 q 50 -489 50 -340 l 50 -489 q 77 -627 50 -564 q 151 -726 104 -690 q 253 -763 197 -763 l 253 -763 q 340 -725 311 -763 q 369 -614 369 -688 l 369 -614 q 342 -477 369 -540 q 267 -377 314 -414 q 164 -340 220 -340 l 164 -340 z m 178 -381 q 227 -418 204 -381 q 264 -516 250 -455 q 278 -647 278 -577 l 278 -647 q 271 -704 278 -687 q 247 -721 264 -721 l 247 -721 q 198 -683 222 -721 q 158 -586 173 -646 q 142 -464 142 -526 l 142 -464 q 151 -401 142 -421 q 178 -381 159 -381 l 178 -381 z m 169 0 l 585 -752 l 657 -752 l 241 0 l 169 0 z m 581 6 q 467 -143 467 6 l 467 -143 q 494 -281 467 -218 q 568 -380 521 -344 q 670 -417 614 -417 l 670 -417 q 757 -379 728 -417 q 786 -268 786 -342 l 786 -268 q 759 -131 786 -194 q 684 -31 731 -68 q 581 6 637 6 l 581 6 z m 595 -35 q 644 -72 621 -35 q 681 -170 667 -109 q 695 -301 695 -231 l 695 -301 q 688 -358 695 -341 q 664 -375 681 -375 l 664 -375 q 615 -337 639 -375 q 575 -240 590 -300 q 559 -118 559 -180 l 559 -118 q 568 -55 559 -75 q 595 -35 576 -35 l 595 -35 z"},"@":{"ha":688,"x_min":-9,"x_max":650,"o":"m 238 102 q 59 43 126 102 q -9 -152 -9 -16 l -9 -152 q 47 -380 -9 -275 q 197 -549 102 -486 q 406 -612 292 -612 l 406 -612 q 583 -552 515 -612 q 650 -383 650 -493 l 650 -383 q 620 -242 650 -309 q 540 -134 589 -175 q 435 -94 490 -94 l 435 -94 q 382 -110 402 -94 q 359 -157 361 -127 l 359 -157 q 244 -84 305 -84 l 244 -84 q 185 -110 206 -84 q 164 -187 164 -137 l 164 -187 q 191 -303 164 -245 q 260 -400 218 -362 q 346 -438 302 -438 l 346 -438 q 373 -432 361 -438 q 398 -411 385 -426 l 398 -411 l 415 -436 l 490 -428 l 444 -252 q 437 -223 443 -247 q 430 -183 430 -199 l 430 -183 q 435 -161 430 -170 q 450 -152 439 -152 l 450 -152 q 497 -185 470 -152 q 543 -270 524 -218 q 562 -380 562 -323 l 562 -380 q 524 -499 562 -458 q 414 -540 485 -540 l 414 -540 q 252 -485 329 -540 q 129 -342 175 -431 q 82 -158 82 -254 l 82 -158 q 122 -22 82 -65 q 244 21 162 21 l 244 21 q 358 -3 305 21 q 443 -68 411 -27 l 443 -68 q 463 -49 455 -62 q 470 -16 470 -36 l 470 -16 q 433 50 470 23 q 341 89 395 76 q 238 102 287 102 l 238 102 z m 287 -153 q 318 -162 302 -153 q 340 -184 333 -171 l 340 -184 l 390 -373 q 369 -383 379 -383 l 369 -383 q 320 -352 345 -383 q 277 -278 294 -322 q 260 -195 260 -234 l 260 -195 q 287 -153 260 -153 l 287 -153 z"},"&":{"ha":682,"x_min":14,"x_max":660,"o":"m 657 -405 q 660 -382 660 -393 l 660 -382 q 634 -316 660 -347 q 567 -272 607 -285 l 567 -272 q 527 -267 550 -267 l 527 -267 q 477 -117 518 -182 q 368 -17 435 -53 q 218 18 301 18 l 218 18 q 69 -30 123 18 q 14 -160 14 -78 l 14 -160 q 39 -268 14 -215 q 106 -361 63 -322 q 199 -415 148 -400 l 199 -415 l 199 -419 q 155 -474 168 -445 q 142 -546 142 -503 l 142 -546 q 172 -647 142 -600 q 252 -723 201 -695 q 361 -752 302 -752 l 361 -752 q 473 -713 429 -752 q 517 -614 517 -674 l 517 -614 q 496 -547 517 -573 q 441 -521 475 -521 l 441 -521 q 380 -552 403 -521 l 380 -552 q 410 -586 398 -563 q 421 -635 421 -609 l 421 -635 q 407 -679 421 -663 q 369 -695 393 -695 l 369 -695 q 319 -675 343 -695 q 281 -621 295 -655 q 266 -551 266 -588 l 266 -551 q 293 -466 266 -501 q 367 -420 320 -432 l 367 -420 l 367 -416 q 279 -372 320 -407 q 213 -288 237 -338 q 188 -188 188 -239 l 188 -188 q 214 -107 188 -136 q 286 -78 240 -78 l 286 -78 q 371 -102 329 -78 q 443 -169 413 -126 q 483 -266 473 -212 l 483 -266 q 437 -260 461 -266 l 437 -260 q 358 -207 382 -242 l 358 -207 l 355 -206 q 337 -242 344 -220 l 337 -242 q 333 -268 333 -254 l 333 -268 q 357 -329 333 -302 q 417 -367 381 -356 l 417 -367 q 494 -379 445 -375 l 494 -379 q 551 -386 527 -381 l 551 -386 q 598 -409 574 -393 q 633 -442 621 -426 l 633 -442 l 635 -442 q 657 -405 650 -427 l 657 -405 z"},"¶":{"ha":542,"x_min":72,"x_max":507,"o":"m 145 81 l 222 -288 q 111 -359 150 -302 q 72 -491 72 -417 l 72 -491 q 101 -614 72 -555 q 187 -711 130 -674 q 322 -749 244 -749 l 322 -749 q 456 -709 404 -749 q 507 -584 507 -669 l 507 -584 q 499 -512 507 -555 l 499 -512 l 372 81 l 278 81 l 359 -299 q 316 -288 341 -293 l 316 -288 l 239 81 l 145 81 z m 327 -339 l 333 -339 q 368 -343 355 -339 l 368 -343 l 416 -570 q 422 -619 422 -599 l 422 -619 q 399 -682 422 -662 l 399 -682 l 327 -339 z"},"§":{"ha":542,"x_min":8,"x_max":525,"o":"m 173 54 q 59 27 109 54 q 8 -77 8 0 l 8 -77 q 35 -165 8 -131 q 104 -200 62 -200 l 104 -200 q 149 -186 131 -200 q 183 -150 166 -173 l 183 -150 q 120 -129 138 -146 q 102 -74 102 -112 l 102 -74 q 121 -15 102 -34 q 184 4 140 4 l 184 4 q 243 -20 222 4 q 264 -93 264 -44 l 264 -93 q 239 -187 264 -150 q 166 -265 214 -224 l 166 -265 q 104 -329 124 -302 q 84 -398 84 -357 l 84 -398 q 113 -481 84 -445 q 188 -535 141 -517 l 188 -535 q 183 -577 183 -560 l 183 -577 q 214 -672 183 -633 q 294 -731 245 -712 q 395 -750 342 -750 l 395 -750 q 484 -731 442 -750 q 525 -655 525 -712 l 525 -655 q 507 -596 525 -619 q 459 -574 489 -574 l 459 -574 q 422 -590 437 -574 l 422 -590 q 449 -618 439 -599 q 458 -659 458 -638 l 458 -659 q 444 -697 458 -682 q 402 -713 430 -713 l 402 -713 q 335 -681 362 -713 q 308 -606 308 -649 l 308 -606 q 320 -557 308 -579 q 348 -520 331 -536 q 396 -478 364 -504 l 396 -478 q 454 -428 432 -450 q 491 -375 475 -406 q 506 -303 506 -344 l 506 -303 q 475 -195 506 -242 q 390 -136 444 -148 l 390 -136 l 390 -133 q 333 4 390 -46 q 173 54 275 54 l 173 54 z m 384 -183 q 403 -246 403 -206 l 403 -246 q 389 -305 403 -279 q 355 -351 375 -332 q 299 -399 334 -371 l 299 -399 q 245 -443 266 -424 q 209 -486 224 -462 l 209 -486 q 190 -451 190 -474 l 190 -451 q 209 -403 190 -425 q 265 -347 227 -381 l 265 -347 q 344 -268 314 -304 q 384 -183 373 -233 l 384 -183 z"},"©":{"ha":587,"x_min":51,"x_max":535,"o":"m 293 -76 q 172 -110 228 -76 q 84 -203 116 -145 q 51 -331 51 -262 l 51 -331 q 84 -460 51 -401 q 172 -553 116 -519 q 293 -587 227 -587 l 293 -587 q 414 -553 358 -587 q 502 -460 469 -519 q 535 -332 535 -402 l 535 -332 q 502 -203 535 -262 q 414 -110 469 -144 q 293 -76 358 -76 l 293 -76 z m 295 -118 q 394 -146 348 -118 q 466 -223 439 -174 q 492 -331 492 -272 l 492 -331 q 466 -439 492 -390 q 394 -516 439 -488 q 295 -544 348 -544 l 295 -544 q 196 -516 241 -544 q 124 -439 150 -488 q 97 -331 97 -390 l 97 -331 q 124 -223 97 -272 q 196 -146 150 -174 q 295 -118 241 -118 l 295 -118 z m 298 -182 q 225 -203 258 -182 q 172 -259 191 -224 q 152 -336 152 -295 l 152 -336 q 172 -411 152 -378 q 226 -464 192 -445 q 300 -484 260 -484 l 300 -484 q 381 -455 347 -482 q 424 -389 414 -429 l 424 -389 l 377 -371 q 365 -401 371 -390 q 343 -422 358 -413 q 302 -432 328 -432 l 302 -432 q 234 -408 261 -432 q 207 -341 207 -385 l 207 -341 q 235 -265 207 -296 q 302 -234 262 -234 l 302 -234 q 346 -246 325 -234 q 377 -279 366 -258 l 377 -279 l 421 -250 q 368 -200 400 -218 q 298 -182 335 -182 l 298 -182 z"},"®":{"ha":553,"x_min":34,"x_max":518,"o":"m 276 -79 q 155 -113 211 -79 q 67 -206 99 -148 q 34 -334 34 -265 l 34 -334 q 67 -463 34 -404 q 155 -556 99 -522 q 276 -590 210 -590 l 276 -590 q 397 -556 341 -590 q 485 -463 452 -522 q 518 -335 518 -405 l 518 -335 q 485 -206 518 -265 q 397 -113 452 -147 q 276 -79 341 -79 l 276 -79 z m 278 -121 q 377 -149 331 -121 q 449 -226 422 -177 q 475 -334 475 -275 l 475 -334 q 449 -442 475 -393 q 377 -519 422 -491 q 278 -547 331 -547 l 278 -547 q 179 -519 224 -547 q 107 -442 133 -491 q 80 -334 80 -393 l 80 -334 q 107 -226 80 -275 q 179 -149 133 -177 q 278 -121 224 -121 l 278 -121 z m 350 -190 l 288 -315 l 222 -315 l 222 -192 l 176 -192 l 177 -483 l 271 -483 q 359 -461 326 -483 q 391 -399 391 -439 l 391 -399 q 375 -351 391 -372 q 332 -322 359 -330 l 332 -322 l 397 -197 l 350 -190 z m 222 -353 l 274 -353 q 324 -362 302 -353 q 345 -397 345 -372 l 345 -397 q 323 -431 345 -421 q 272 -442 301 -442 l 272 -442 l 222 -442 l 222 -353 z"},"°":{"ha":314,"x_min":37,"x_max":281,"o":"m 133 -374 q 58 -402 78 -374 q 37 -488 37 -430 l 37 -488 q 57 -596 37 -547 q 113 -673 76 -645 q 199 -702 150 -702 l 199 -702 q 262 -673 242 -702 q 281 -589 281 -645 l 281 -589 q 263 -493 281 -544 q 212 -408 245 -443 q 133 -374 178 -374 l 133 -374 z m 136 -411 q 198 -468 174 -411 q 221 -604 221 -525 l 221 -604 q 216 -650 221 -634 q 196 -667 211 -667 l 196 -667 q 163 -649 181 -667 q 130 -598 144 -632 q 111 -519 115 -564 l 111 -519 q 109 -476 109 -495 l 109 -476 q 136 -411 109 -411 l 136 -411 z"},"|":{"ha":532,"x_min":219,"x_max":312,"o":"m 219 250 l 219 -751 l 312 -751 l 312 250 l 219 250 z"},"¦":{"ha":532,"x_min":219,"x_max":312,"o":"m 219 -301 l 219 -751 l 312 -751 l 312 -301 l 219 -301 z m 219 250 l 219 -222 l 312 -222 l 312 250 l 219 250 z"},"^":{"ha":421,"x_min":50,"x_max":343,"o":"m 50 -561 l 262 -750 l 283 -750 l 343 -561 l 311 -561 l 251 -641 l 94 -561 l 50 -561 z"},"´":{"ha":316,"x_min":120,"x_max":316,"o":"m 120 -561 l 211 -750 l 316 -750 l 175 -561 l 120 -561 z"},"¸":{"ha":227,"x_min":5,"x_max":237,"o":"m 105 226 q 49 214 75 226 q 5 180 22 202 l 5 180 l 22 153 q 56 175 36 167 q 94 183 75 183 l 94 183 q 130 172 116 183 q 144 142 144 160 l 144 142 q 133 117 144 126 q 102 107 121 107 l 102 107 q 53 119 77 107 l 53 119 l 49 115 l 106 -29 l 149 -26 l 112 66 q 165 56 146 56 l 165 56 q 218 74 198 56 q 237 122 237 92 l 237 122 q 219 174 237 150 q 171 212 201 198 q 105 226 140 226 l 105 226 z"},"¨":{"ha":392,"x_min":56,"x_max":358,"o":"m 117 -573 q 74 -590 91 -573 q 56 -634 56 -608 l 56 -634 q 74 -677 56 -659 q 117 -695 91 -695 l 117 -695 q 160 -677 142 -695 q 178 -634 178 -659 l 178 -634 q 160 -590 178 -608 q 117 -573 142 -573 l 117 -573 z m 297 -573 q 254 -590 271 -573 q 236 -634 236 -608 l 236 -634 q 254 -677 236 -659 q 297 -695 271 -695 l 297 -695 q 340 -677 322 -695 q 358 -634 358 -659 l 358 -634 q 340 -590 358 -608 q 297 -573 322 -573 l 297 -573 z"},"`":{"ha":201,"x_min":24,"x_max":158,"o":"m 103 -561 l 24 -750 l 129 -750 l 158 -561 l 103 -561 z"},"¯":{"ha":446,"x_min":70,"x_max":406,"o":"m 70 -591 l 86 -665 l 406 -665 l 391 -591 l 70 -591 z"}}}
